<svg width="26" height="9" viewBox="0 0 26 9" fill="none" xmlns="http://www.w3.org/2000/svg">
<path d="M10.1941 0.673365L4.54409 6.33336C4.45113 6.42709 4.34053 6.50149 4.21867 6.55226C4.09681 6.60302 3.9661 6.62916 3.83409 6.62916C3.70208 6.62916 3.57137 6.60302 3.44952 6.55226C3.32766 6.50149 3.21706 6.42709 3.12409 6.33336L1.71409 4.91336C1.62085 4.82013 1.51016 4.74617 1.38834 4.69571C1.26652 4.64525 1.13595 4.61927 1.00409 4.61927C0.872233 4.61927 0.741665 4.64525 0.619843 4.69571C0.498021 4.74617 0.387331 4.82013 0.294092 4.91336C0.200854 5.0066 0.126893 5.11729 0.0764322 5.23911C0.0259719 5.36094 -9.82427e-10 5.49151 0 5.62337C9.82428e-10 5.75522 0.0259719 5.88579 0.0764322 6.00761C0.126893 6.12944 0.200854 6.24013 0.294092 6.33336L1.71409 7.74336C2.27659 8.30517 3.03909 8.62073 3.83409 8.62073C4.62909 8.62073 5.39159 8.30517 5.95409 7.74336L11.6141 2.09336C11.7073 2.00013 11.7813 1.88944 11.8318 1.76761C11.8822 1.64579 11.9082 1.51522 11.9082 1.38336C11.9082 1.25151 11.8822 1.12094 11.8318 0.999115C11.7813 0.877293 11.7073 0.766603 11.6141 0.673365C11.5209 0.580126 11.4102 0.506165 11.2883 0.455705C11.1665 0.405244 11.036 0.379272 10.9041 0.379272C10.7722 0.379272 10.6417 0.405244 10.5198 0.455705C10.398 0.506165 10.2873 0.580126 10.1941 0.673365V0.673365Z" fill="#55A630"/>
<path d="M24.1023 0.673365L18.4523 6.33336C18.3593 6.42709 18.2487 6.50149 18.1268 6.55226C18.005 6.60302 17.8743 6.62916 17.7423 6.62916C17.6103 6.62916 17.4795 6.60302 17.3577 6.55226C17.2358 6.50149 17.1252 6.42709 17.0323 6.33336L15.6223 4.91336C15.529 4.82013 15.4183 4.74617 15.2965 4.69571C15.1747 4.64525 15.0441 4.61927 14.9123 4.61927C14.7804 4.61927 14.6498 4.64525 14.528 4.69571C14.4062 4.74617 14.2955 4.82013 14.2023 4.91336C14.109 5.0066 14.0351 5.11729 13.9846 5.23911C13.9341 5.36094 13.9082 5.49151 13.9082 5.62337C13.9082 5.75522 13.9341 5.88579 13.9846 6.00761C14.0351 6.12944 14.109 6.24013 14.2023 6.33336L15.6223 7.74336C16.1848 8.30517 16.9473 8.62073 17.7423 8.62073C18.5373 8.62073 19.2998 8.30517 19.8623 7.74336L25.5223 2.09336C25.6155 2.00013 25.6895 1.88944 25.7399 1.76761C25.7904 1.64579 25.8164 1.51522 25.8164 1.38336C25.8164 1.25151 25.7904 1.12094 25.7399 0.999115C25.6895 0.877293 25.6155 0.766603 25.5223 0.673365C25.429 0.580126 25.3183 0.506165 25.1965 0.455705C25.0747 0.405244 24.9441 0.379272 24.8123 0.379272C24.6804 0.379272 24.5498 0.405244 24.428 0.455705C24.3062 0.506165 24.1955 0.580126 24.1023 0.673365V0.673365Z" fill="#55A630"/>
</svg>
