<svg width="991" height="102" viewBox="0 0 991 102" fill="none" xmlns="http://www.w3.org/2000/svg">
<g clip-path="url(#clip0_1_59)">
<path fill-rule="evenodd" clip-rule="evenodd" d="M17.6496 55.8643L17.696 55.4395C18.2143 52.795 16.9901 51.6616 13.1272 51.6616C9.40541 51.6616 7.75678 52.795 7.28588 55.4395L7.19208 55.9112C6.6738 58.5567 8.36982 59.738 11.7135 59.738C15.1529 59.738 17.2251 58.131 17.6496 55.8643V55.8643ZM30.7913 53.9283L35.2199 28.8006C35.2594 28.5763 35.3755 28.3731 35.5481 28.2268C35.7206 28.0804 35.9385 28.0001 36.1636 28H41.3309C41.4709 28.0001 41.6091 28.0313 41.736 28.0912C41.8628 28.1512 41.9751 28.2385 42.065 28.3471C42.1549 28.4556 42.2203 28.5828 42.2565 28.7197C42.2928 28.8565 42.2989 28.9997 42.2747 29.1392L40.8252 37.4457C42.615 36.1234 44.5934 35.1789 48.2214 35.1789C55.2868 35.1789 58.0658 39.9013 57.0766 45.5211L55.428 54.7779C54.2503 61.5311 50.3409 64.7902 41.6259 64.7902C33.4301 64.7902 29.6609 60.2098 30.7913 53.9283V53.9283ZM48.5511 53.6445L49.87 46.2297C50.3873 43.3014 49.257 41.3185 45.4414 41.3185C41.5794 41.3185 39.7887 43.3014 39.2704 46.2297L37.9515 53.6445C37.4332 56.5729 38.5645 58.5567 42.4265 58.5567C46.242 58.5567 48.0328 56.5729 48.5511 53.6445ZM86.0936 51.9445H67.9586L67.5815 54.2112C67.157 56.7148 67.9103 58.9815 72.4336 58.9815C76.343 58.9815 78.2275 57.8481 78.651 55.4874C78.6641 55.4206 78.6996 55.3604 78.7517 55.3172C78.8037 55.274 78.869 55.2504 78.9363 55.2506H84.5852C84.702 55.2507 84.8174 55.2763 84.9236 55.3256C85.0298 55.375 85.1242 55.447 85.2003 55.5366C85.2765 55.6263 85.3327 55.7315 85.365 55.8451C85.3974 55.9588 85.4051 56.0781 85.3877 56.1951C84.3985 61.7679 80.4882 64.7902 71.8679 64.7902C63.3414 64.7902 59.668 60.1149 60.751 54.1172L62.2585 45.3802C63.53 38.579 67.4403 35.1789 76.1544 35.1789C84.5397 35.1789 88.2605 39.7594 87.1775 45.8999L86.0946 51.9445H86.0936ZM69.0416 45.8519L68.8066 47.3161H80.0647L80.3471 45.8049C80.8653 42.7826 79.6412 40.9877 75.5897 40.9877C71.397 40.9877 69.5599 42.9715 69.0416 45.8519V45.8519ZM102.581 56.384C106.444 56.384 108.234 54.4001 108.752 51.5667L109.647 46.3246C110.165 43.4433 109.034 41.5074 105.219 41.5074C101.403 41.5074 99.6134 43.4433 99.0951 46.3246L98.2007 51.5667C97.6824 54.4001 98.7654 56.384 102.581 56.384V56.384ZM105.878 35.1789C114.075 35.1789 117.938 39.8543 116.807 46.2297L113.793 63.326C112.378 71.1186 107.998 74 100.32 74H99.5196C92.6891 74 88.2605 70.552 88.9674 64.9321C88.994 64.7865 89.0702 64.6548 89.1827 64.5601C89.2952 64.4653 89.4369 64.4134 89.5833 64.4134H95.7978C95.4207 66.5852 96.9756 68.0963 100.273 68.0963C104.465 68.0963 106.208 66.1604 106.679 63.468L107.338 59.926C105.549 61.3431 103.617 62.1457 99.8493 62.1457C93.3486 62.1457 90.0039 57.6592 91.0869 51.4727L92.1235 45.4741C93.3012 38.7209 97.2105 35.178 105.878 35.178V35.1789ZM20.766 31.7231C20.9118 31.7232 21.0557 31.757 21.1866 31.8219C21.3176 31.8867 21.4322 31.981 21.5218 32.0974C21.6114 32.2138 21.6736 32.3494 21.7036 32.4938C21.7337 32.6382 21.7308 32.7877 21.6952 32.9308L20.9807 35.8024C25.3029 37.2215 27.406 40.9289 26.5986 45.5211L24.9036 55.1557C23.8593 61.0505 20.4653 63.7929 15.1887 64.5847L14.5602 67.1049C14.5081 67.3146 14.3882 67.5008 14.2197 67.6337C14.0512 67.7667 13.8437 67.8389 13.63 67.8389H7.98691C7.84092 67.839 7.69685 67.8053 7.56568 67.7404C7.4345 67.6756 7.31968 67.5812 7.22997 67.4647C7.14026 67.3481 7.07802 67.2123 7.04799 67.0677C7.01797 66.9231 7.02095 66.7735 7.05671 66.6302L7.55855 64.6189C2.37865 63.7704 -0.526049 60.5269 0.0773232 56.0062L0.172083 55.3446C0.831538 50.1965 4.31736 47.1742 12.4668 47.1742C15.5755 47.1742 17.8836 47.6469 18.9675 48.2606L19.391 45.758C19.9093 43.0185 18.6852 41.1766 15.1984 41.1766C12.2782 41.1766 10.1587 42.168 9.73514 44.6706H2.95108C3.75557 38.9382 6.84689 35.8396 13.4898 35.2739L14.1927 32.4551C14.2452 32.2458 14.3652 32.0601 14.5337 31.9275C14.7022 31.7949 14.9095 31.723 15.1229 31.7231H20.7651H20.766Z" fill="#753FF6"/>
</g>
<g clip-path="url(#clip1_1_59)">
<path d="M311.484 30.1077C311.508 30.0658 311.537 30.0658 311.57 30.1077L311.52 30.1495L311.484 30.1077Z" fill="#0124DD"/>
<path d="M268.289 44.7138C268.832 43.0524 269.347 41.4823 269.851 39.9255C269.913 39.7354 270.039 39.6917 270.203 39.6613C272.924 39.1481 275.655 38.7109 278.434 38.8496C280.395 38.9428 282.281 39.3477 283.97 40.4121C286.26 41.853 287.307 44.0238 287.455 46.685C287.542 48.2152 287.296 49.7264 287.079 51.2242C286.63 54.277 286.167 57.326 285.733 60.3788C285.721 60.5068 285.676 60.6292 285.601 60.7333C285.526 60.8373 285.425 60.919 285.308 60.97C283.537 61.9527 281.616 62.4906 279.641 62.8176C277.198 63.2456 274.706 63.3096 272.245 63.0077C270.194 62.7473 268.281 62.1029 266.792 60.5784C266.146 59.9094 265.644 59.1119 265.319 58.2366C264.994 57.3612 264.852 56.4271 264.903 55.4934C264.954 54.5597 265.196 53.6469 265.614 52.8128C266.032 51.9788 266.617 51.2417 267.332 50.6483C268.859 49.3785 270.664 48.7474 272.564 48.3387C275.443 47.7229 278.348 47.8065 281.255 48.0308C281.617 48.0574 281.696 47.9453 281.713 47.6183C281.843 45.3259 280.482 43.6797 278.092 43.2368C276.434 42.9289 274.806 43.195 273.177 43.4649C271.516 43.7413 269.881 44.1591 268.289 44.7138V44.7138ZM278.457 51.6291C277.422 51.6223 276.389 51.6992 275.366 51.8591C274.26 52.0492 273.187 52.3439 272.296 53.0852C271.288 53.9235 271.019 55.0488 271.218 56.2881C271.406 57.4192 272.188 58.0388 273.202 58.4038C273.666 58.569 274.15 58.6744 274.64 58.7174C276.453 58.8942 278.212 58.5749 279.961 58.1377C280.08 58.1219 280.188 58.0626 280.267 57.9712C280.345 57.8798 280.387 57.7625 280.386 57.6416C280.625 55.8452 280.862 54.047 281.125 52.2545C281.17 51.9447 281.068 51.8857 280.813 51.8363C280.034 51.7063 279.246 51.637 278.457 51.6291V51.6291Z" fill="#114185"/>
<path d="M352.227 57.2329C351.926 58.1568 351.663 58.9836 351.385 59.8105C351.163 60.4891 350.926 61.162 350.716 61.8463C350.696 61.9511 350.645 62.0474 350.571 62.1232C350.497 62.199 350.402 62.2508 350.298 62.2721C347.422 63.0477 344.507 63.4678 341.537 63.0895C338.152 62.658 335.355 61.1886 333.64 58.0503C332.585 56.1076 332.25 53.992 332.393 51.8117C332.666 47.664 334.375 44.2253 337.553 41.5622C339.484 39.9427 341.736 39.1101 344.214 38.863C345.923 38.6938 347.623 38.7262 349.29 39.1957C352.686 40.1461 354.95 42.8168 355.384 46.3524C355.634 48.3844 355.384 50.3803 355.059 52.3781C355.019 52.6272 354.895 52.6348 354.707 52.6348C353.795 52.6348 352.882 52.6348 351.97 52.6348C347.583 52.6348 343.196 52.6348 338.809 52.6348C338.455 52.6348 338.352 52.7222 338.346 53.0891C338.297 56.0772 339.929 58.0503 342.834 58.554C344.981 58.9342 347.07 58.6054 349.155 58.1454C350.198 57.9096 351.224 57.6048 352.227 57.2329V57.2329ZM344.556 48.7551H348.768C350.054 48.7551 350.054 48.7551 350.097 47.4549C350.185 44.8222 348.593 43.1057 346.004 42.9594C342.907 42.7826 339.987 45.0503 339.235 48.4148C339.173 48.6943 339.235 48.7627 339.517 48.7608C341.193 48.7475 342.864 48.7551 344.556 48.7551Z" fill="#114185"/>
<path d="M363.038 63.1656C360.277 63.147 357.537 62.685 354.92 61.7969C354.658 61.7057 354.589 61.6297 354.683 61.3426C355.113 60.026 355.525 58.703 355.918 57.3736C356.016 57.0467 356.131 57.0733 356.39 57.1988C358.904 58.442 361.743 58.8466 364.499 58.3545C365.146 58.2549 365.759 58.0008 366.289 57.6131C366.534 57.4414 366.738 57.2163 366.886 56.9543C367.033 56.6924 367.121 56.4003 367.142 56.0996C367.164 55.7989 367.118 55.4971 367.009 55.2166C366.899 54.9361 366.729 54.6839 366.511 54.4786C366.033 54.0314 365.497 53.6527 364.917 53.3533C363.478 52.5397 362.015 51.7775 360.649 50.8347C356.977 48.2932 357.424 43.0031 361.04 40.6822C362.642 39.6538 364.396 39.1387 366.259 38.9429C369.365 38.6178 372.368 39.1558 375.327 40.0568C375.598 40.1385 375.667 40.2127 375.564 40.5035C375.118 41.7524 374.688 43.0088 374.284 44.2729C374.176 44.6055 374.049 44.5808 373.795 44.463C371.944 43.5799 369.917 43.1378 367.87 43.1704C366.878 43.1951 365.909 43.3605 365.069 43.9536C364.712 44.1839 364.439 44.5264 364.293 44.9285C364.147 45.3306 364.135 45.7701 364.26 46.1795C364.422 46.6385 364.728 47.0316 365.131 47.2991C366.001 47.9606 366.998 48.4073 367.951 48.9357C369.117 49.5514 370.231 50.2648 371.279 51.0685C374.378 53.5548 374.064 58.2918 371.091 60.6983C369.173 62.2475 366.928 62.8671 364.541 63.0876C363.941 63.1409 363.345 63.1504 363.038 63.1656Z" fill="#114185"/>
<path d="M383.32 63.1656C380.596 63.139 377.893 62.6817 375.308 61.8102C375.009 61.7095 374.932 61.6201 375.043 61.3008C375.468 60.012 375.87 58.7156 376.262 57.4154C376.356 57.0999 376.45 57.0543 376.754 57.2025C379.257 58.4342 382.08 58.8398 384.824 58.3621C385.412 58.2687 385.975 58.0567 386.48 57.7386C387.727 56.9345 387.879 55.4576 386.826 54.4235C386.385 54.0223 385.894 53.6805 385.365 53.4065C383.861 52.5435 382.299 51.7718 380.883 50.7453C377.617 48.3597 378.023 44.0429 380.02 41.8759C381.366 40.4179 383.066 39.6348 384.952 39.2147C387.454 38.6444 389.955 38.7813 392.454 39.2489C393.506 39.439 394.537 39.7279 395.567 40.0092C395.909 40.1062 396.033 40.2088 395.889 40.6042C395.454 41.796 395.059 43.0012 394.676 44.2158C394.569 44.5485 394.462 44.596 394.138 44.4535C392.312 43.5864 390.316 43.1454 388.298 43.1628C387.358 43.1799 386.45 43.3205 385.63 43.8186C384.854 44.2881 384.461 44.9705 384.578 45.9095C384.651 46.5064 385.006 46.9227 385.454 47.2648C386.394 47.9853 387.475 48.4605 388.498 49.0307C389.663 49.6827 390.814 50.3613 391.831 51.2376C394.682 53.7088 394.36 58.2898 391.5 60.6469C389.964 61.9148 388.182 62.5725 386.258 62.9127C385.287 63.0723 384.304 63.1569 383.32 63.1656Z" fill="#114185"/>
<path d="M308.833 57.5694C308.737 58.1396 308.495 58.6509 308.316 59.1889C307.976 60.2135 307.613 61.2285 307.276 62.255C307.251 62.3576 307.195 62.4497 307.115 62.518C307.036 62.5863 306.937 62.6273 306.832 62.6352C304.576 63.0153 302.296 63.2567 300.004 63.0819C296.584 62.8214 293.651 61.5612 291.635 58.6148C290.214 56.5391 289.712 54.1801 289.838 51.6957C290.048 47.5518 291.785 44.1607 294.987 41.5641C296.822 40.0776 298.981 39.3477 301.28 39.0435C304.127 38.6357 307.025 38.8109 309.803 39.5587C310.333 39.705 310.845 39.9103 311.366 40.0814C311.554 40.1422 311.602 40.224 311.533 40.4312C311.089 41.7428 310.649 43.0582 310.234 44.3793C310.142 44.6701 310.012 44.6112 309.826 44.537C308.498 43.9867 307.092 43.6536 305.661 43.5505C302.564 43.3737 299.872 44.2348 297.939 46.8409C296.129 49.2835 295.848 53.3399 297.787 55.792C298.992 57.3127 300.583 58.1187 302.47 58.3411C304.507 58.5806 306.475 58.1833 308.419 57.6188C308.543 57.5827 308.669 57.558 308.795 57.5275L308.833 57.5694Z" fill="#114185"/>
<path d="M330.267 57.5428C329.834 58.8012 329.338 60.0462 328.983 61.3312C328.725 62.2684 328.291 62.7132 327.279 62.8158C324.459 63.1009 321.639 63.4203 318.819 62.6656C314.383 61.4738 311.486 57.8964 311.245 53.2469C310.982 48.1944 312.896 44.1569 316.921 41.1707C318.614 39.918 320.588 39.3249 322.648 39.0531C325.494 38.6466 328.392 38.8211 331.169 39.5664C331.685 39.7089 332.179 39.9218 332.692 40.072C332.961 40.1518 332.969 40.2754 332.88 40.513C332.45 41.7847 332.023 43.0563 331.623 44.3375C331.527 44.6436 331.412 44.6322 331.166 44.5371C329.195 43.7768 327.18 43.3643 325.053 43.5867C321.441 43.9783 318.693 46.3924 317.999 49.9451C317.499 52.5093 317.957 54.855 319.979 56.6703C321.59 58.115 323.551 58.518 325.64 58.3944C327.113 58.2963 328.57 58.0154 329.975 57.558C330.06 57.5428 330.135 57.4725 330.267 57.5428Z" fill="#114185"/>
<path d="M258.64 52.3116L235.219 28.6326V32.267L255.045 52.3116L255.053 52.3192L237.879 69.6817L237.858 69.6608L220.696 52.3116L220.681 52.2964L229.106 43.7786H225.449L217.017 52.304L217.024 52.3116L237.851 73.3675L237.858 73.3599L258.659 52.3306L258.64 52.3116Z" fill="#FE6309"/>
<path d="M235.211 34.7686V38.403L248.976 52.3192L237.887 63.5305L226.788 52.3116L226.773 52.2964L235.198 43.7786H231.541L223.108 52.304L223.116 52.3116L236.05 65.3876L237.858 67.2163L239.697 65.3591L252.582 52.3306L235.211 34.7686Z" fill="#FE6309"/>
<path d="M246.511 52.3115L239.643 45.3601L237.815 43.5125L236.018 45.3297L229.114 52.3039L236.021 59.2877L237.83 61.1163L239.665 59.2592L246.53 52.3306L246.511 52.3115ZM237.862 57.4439L232.786 52.3115L232.771 52.2963L237.834 47.1773L242.91 52.3096L237.862 57.4439Z" fill="#FE6309"/>
</g>
<path d="M582.007 20L570.902 22.3307V66.6143H582.007V20Z" fill="#56BD82"/>
<path d="M550.387 33.2378C546.998 33.2378 543.684 34.2304 540.866 36.0901C538.048 37.9497 535.852 40.5929 534.555 43.6855C533.258 46.778 532.918 50.1809 533.58 53.4639C534.241 56.7469 535.873 59.7625 538.269 62.1294C540.666 64.4963 543.72 66.1082 547.044 66.7613C550.368 67.4143 553.814 67.0791 556.945 65.7982C560.076 64.5172 562.753 62.348 564.636 59.5648C566.519 56.7816 567.524 53.5094 567.524 50.1621C567.523 45.6736 565.718 41.3691 562.504 38.1953C559.29 35.0214 554.932 33.2382 550.387 33.2378V33.2378ZM550.387 55.6462C549.289 55.6462 548.215 55.3245 547.302 54.7219C546.389 54.1193 545.677 53.2628 545.257 52.2608C544.836 51.2587 544.727 50.156 544.941 49.0922C545.155 48.0284 545.684 47.0513 546.46 46.2843C547.237 45.5174 548.226 44.9951 549.304 44.7835C550.381 44.5719 551.497 44.6805 552.512 45.0955C553.527 45.5106 554.394 46.2135 555.004 47.1154C555.614 48.0172 555.94 49.0775 555.94 50.1621C555.94 51.6166 555.355 53.0115 554.313 54.0399C553.272 55.0684 551.86 55.6462 550.387 55.6462Z" fill="#56BD82"/>
<path d="M550.387 71.032C551.485 71.032 552.559 71.3536 553.472 71.9562C554.385 72.5588 555.097 73.4153 555.517 74.4174C555.937 75.4194 556.047 76.5221 555.833 77.5859C555.619 78.6497 555.09 79.6269 554.313 80.3938C553.537 81.1608 552.547 81.6831 551.47 81.8947C550.393 82.1063 549.277 81.9977 548.262 81.5826C547.247 81.1675 546.38 80.4646 545.77 79.5628C545.16 78.6609 544.834 77.6007 544.834 76.516C544.834 75.0616 545.419 73.6667 546.46 72.6382C547.502 71.6098 548.914 71.032 550.387 71.032" fill="#56BD82"/>
<path d="M525.677 41.9666C527.041 39.7854 527.79 37.2842 527.848 34.7213C527.906 32.1584 527.27 29.6266 526.006 27.3876C524.742 25.1485 522.896 23.2833 520.658 21.9846C518.42 20.6859 515.871 20.0008 513.275 20L496 20V66.6143H515.435C518.326 66.6131 521.152 65.7632 523.553 64.1724C525.954 62.5817 527.822 60.3219 528.92 57.6803C530.017 55.0386 530.295 52.1343 529.718 49.3364C529.14 46.5385 527.734 43.9732 525.677 41.9666V41.9666ZM507.121 30.9681H513.291C514.211 30.9681 515.094 31.3292 515.745 31.972C516.396 32.6147 516.761 33.4865 516.761 34.3956C516.761 35.3046 516.396 36.1764 515.745 36.8192C515.094 37.462 514.211 37.8231 513.291 37.8231H507.121V30.9681ZM515.45 55.6462H507.121V48.7912H515.45C516.371 48.7912 517.254 49.1523 517.904 49.7951C518.555 50.4378 518.921 51.3096 518.921 52.2187C518.921 53.1277 518.555 53.9995 517.904 54.6423C517.254 55.2851 516.371 55.6462 515.45 55.6462" fill="#56BD82"/>
<path d="M602.985 44.8304V33.8624H597.432V25.484L586.326 27.8147V56.1946C586.326 62.882 590.537 66.7361 596.738 67.056C596.799 67.056 596.876 67.0712 596.938 67.0712H597.046C597.185 67.0712 597.308 67.0865 597.447 67.0865H597.586C599.478 67.0782 601.338 66.6071 603 65.7155V57.6418C602.191 57.8588 601.355 57.9664 600.517 57.9617C598.296 57.9617 597.447 56.0422 597.447 53.4373V44.8304H602.985Z" fill="#56BD82"/>
<path d="M804.146 1.83606H704.751V100.266H804.146V1.83606Z" fill="#162D4C"/>
<path d="M748.169 16.574V16.524H778.142V16.5761L748.169 16.574Z" fill="#E4B935"/>
<path d="M748.169 16.574H778.142C777.915 17.6531 777.693 18.7333 777.461 19.8115C776.574 23.937 775.684 28.0612 774.791 32.1841C774.43 33.8599 774.07 35.5368 773.705 37.2106C773.659 37.4146 773.68 37.487 773.911 37.4901C774.735 37.5023 775.559 37.4901 776.383 37.4585C776.786 37.4347 777.191 37.4608 777.587 37.536C778.308 37.687 778.509 38.2021 778.078 38.8008C777.836 39.1124 777.523 39.3615 777.163 39.527C776.35 39.9422 775.471 40.1197 774.576 40.2349C774.135 40.3019 773.689 40.336 773.243 40.3369C773.07 40.3369 773.026 40.4165 772.997 40.5542C772.722 41.8462 772.445 43.1409 772.166 44.4383L769.622 56.3132C769.571 56.5539 769.519 56.7936 769.471 57.0364C769.446 57.1731 769.397 57.2557 769.239 57.2271C769.196 57.223 769.153 57.223 769.111 57.2271H739.783C739.429 57.2271 739.43 57.2271 739.506 56.8681C740.974 50.0218 742.442 43.1756 743.909 36.3293C744.236 34.8021 744.565 33.2755 744.894 31.7495C744.923 31.6612 744.917 31.5655 744.878 31.4813C744.44 30.6235 744.301 29.6922 744.209 28.7518C743.975 26.3609 744.537 24.0771 745.195 21.8107C745.386 21.1579 746.102 20.756 746.884 20.8437C747.172 20.8753 747.254 20.7978 747.308 20.5285C747.568 19.2392 747.853 17.9551 748.132 16.6688C748.141 16.6362 748.153 16.6044 748.169 16.574ZM758.366 37.688C758.442 37.6798 758.52 37.6798 758.596 37.688C759.538 37.9001 760.02 37.3493 760.401 36.6302C760.444 36.5476 760.488 36.464 760.525 36.3793C760.79 35.7826 760.789 35.7816 760.302 35.3593C760.27 35.3294 760.235 35.3022 760.199 35.2777C759.986 35.1492 759.987 35.0115 760.118 34.8014C760.523 34.1486 761.115 33.63 761.819 33.3116C762.523 32.9931 763.306 32.8893 764.07 33.0133C764.331 33.0483 764.577 33.1543 764.781 33.3193C765.451 33.8507 766.143 34.3516 766.85 34.835C767.5 35.292 768.178 35.708 768.881 36.0805C769.141 36.2151 769.156 36.209 769.132 35.9315C769.087 35.4073 769.034 34.8833 768.975 34.3597C768.842 33.1826 768.482 32.0984 767.722 31.1528C767.177 30.4756 766.659 29.7769 766.103 29.1077C766.049 29.0501 766.009 28.981 765.986 28.9057C765.963 28.8304 765.957 28.7509 765.97 28.6732C766.094 27.7083 766.096 27.7022 765.488 26.9392C764.149 25.2583 762.559 23.818 760.933 22.4165C760.838 22.3447 760.726 22.2964 760.608 22.2758C759.484 22.002 758.335 21.8458 757.178 21.8096C756.506 21.779 755.884 21.8525 755.333 22.2605C754.883 22.594 754.406 22.6491 753.841 22.5563C752.016 22.2554 750.181 22.0085 748.349 21.7515C747.815 21.677 747.287 21.5475 746.742 21.574C746.273 21.5954 746.013 21.7566 745.894 22.1391C745.31 24.0281 744.864 25.9447 744.929 27.9388C744.963 29.7791 745.578 31.5626 746.688 33.0388C747.924 34.6892 749.597 35.7479 751.51 36.465C753.715 37.2892 756.02 37.5839 758.36 37.6839L758.366 37.688ZM758.16 50.2064C758.051 50.2768 757.98 50.3238 757.908 50.3686C757.015 50.9235 756.123 51.4804 755.225 52.0272C755.044 52.1373 755.036 52.1944 755.205 52.3332C756.647 53.5113 758.082 54.6985 759.521 55.8817C759.557 55.9123 759.59 55.9644 759.666 55.9287C759.682 55.6655 759.713 55.3952 759.709 55.1249C759.708 54.8197 759.773 54.518 759.899 54.2395C760.3 53.293 760.683 52.3393 761.077 51.3897C761.127 51.2732 761.15 51.1469 761.143 51.0204C761.108 50.1799 761.076 49.3394 761.05 48.499C761.045 48.3469 760.999 48.199 760.915 48.0716C760.004 46.613 759.1 45.1513 758.186 43.6937C758.146 43.6358 758.12 43.5693 758.11 43.4996C758.099 43.4298 758.106 43.3587 758.129 43.2919C758.281 42.7706 758.419 42.2453 758.571 41.7231C758.628 41.5188 758.645 41.3056 758.622 41.0948C758.569 40.5195 758.519 39.9442 758.479 39.3679C758.468 39.1762 758.413 39.1129 758.208 39.1119C756.844 39.1129 755.483 38.9793 754.146 38.7131C750.663 37.9991 747.856 36.2732 745.854 33.3285C745.814 33.2704 745.794 33.1867 745.687 33.1633C745.676 33.2112 745.664 33.2581 745.653 33.305C744.765 37.4789 743.877 41.6534 742.989 45.8286C742.877 46.3498 742.877 46.356 743.407 46.411C743.749 46.4467 744.074 46.5549 744.437 46.4243C746.193 45.799 747.961 45.2054 749.722 44.5883C749.809 44.5485 749.906 44.5337 750.001 44.5456C750.097 44.5575 750.187 44.5956 750.262 44.6556C752.6 46.308 754.943 47.9543 757.29 49.5944L758.16 50.2064ZM749.926 45.5583C749.926 46.8068 749.926 48.0379 749.926 49.2701C749.928 49.4803 749.886 49.6887 749.803 49.8821C749.123 51.4845 748.452 53.091 747.77 54.6934C747.731 54.7677 747.713 54.8505 747.716 54.934C747.719 55.0175 747.744 55.0987 747.789 55.1698C747.933 55.4207 748.06 55.6798 748.179 55.944C748.201 56.0108 748.245 56.0681 748.305 56.1064C748.364 56.1446 748.435 56.1615 748.505 56.1541C750.145 56.1449 751.784 56.1541 753.423 56.1469C753.494 56.1469 753.575 56.1796 753.651 56.097C753.501 55.791 753.356 55.4737 753.193 55.1677C753.11 55.0205 753.085 54.8477 753.123 54.6832C753.525 52.7391 753.916 50.7919 754.324 48.8488C754.365 48.656 754.324 48.5602 754.169 48.4531C752.825 47.5262 751.483 46.596 750.143 45.6623C750.084 45.6001 750.004 45.5616 749.918 45.5542L749.926 45.5583ZM772.601 39.6892C772.79 39.6892 772.978 39.6953 773.167 39.6892C774.292 39.6443 775.404 39.5066 776.475 39.1394C776.805 39.042 777.108 38.8738 777.365 38.6468C777.487 38.5315 777.597 38.3959 777.526 38.2214C777.463 38.0664 777.293 38.0552 777.151 38.0542C776.808 38.0542 776.463 38.045 776.121 38.0756C774.674 38.2124 773.214 38.1051 771.804 37.7584C769.295 37.1413 767.059 35.9693 764.991 34.4638C764.722 34.2562 764.402 34.1253 764.064 34.0853C763.098 33.9833 762.26 34.2047 761.636 34.9962C761.52 35.1421 761.517 35.2349 761.669 35.3675C762.465 36.0662 763.323 36.6927 764.232 37.2392C766.797 38.7875 769.563 39.6872 772.593 39.6851L772.601 39.6892ZM764.924 38.5856C764.95 38.7631 764.975 38.8916 764.988 39.0293C765.031 39.4679 765.176 39.8942 765.132 40.341C764.996 41.7109 764.701 43.0573 764.52 44.421C764.38 45.4828 764.237 46.5457 764.294 47.6187C764.341 48.4857 764.625 49.267 765.368 49.7821C766.068 50.2677 766.837 50.4155 767.646 50.0024C767.709 49.9762 767.762 49.9308 767.797 49.8729C767.832 49.8149 767.848 49.7475 767.842 49.6801C767.838 49.3916 767.81 49.1039 767.756 48.8203C767.72 48.6408 767.661 48.5938 767.466 48.6285C766.738 48.7581 766.239 48.2399 766.381 47.5249C766.506 46.8965 766.758 46.3111 766.999 45.7225C767.585 44.3098 768.281 42.9451 768.89 41.5405C769.046 41.1449 769.141 40.7286 769.173 40.3053C769.19 40.1666 769.173 40.0952 768.998 40.0727C768.71 40.0311 768.425 39.9725 768.143 39.8973C767.016 39.6043 765.933 39.1631 764.924 38.5856Z" fill="#DFAC0F"/>
<path d="M758.832 69.0152C759.134 69.0632 759.43 69.1426 759.715 69.2519C760.65 69.6385 761.149 70.3555 761.194 71.3337C761.278 73.1401 760.4 74.4671 758.95 75.4616C758.017 76.0973 756.911 76.4348 755.779 76.4286C754.279 76.4398 752.777 76.4286 751.275 76.4286C750.873 76.4286 750.783 76.3164 750.863 75.9308C751.772 71.5714 752.68 67.2119 753.589 62.8524C753.682 62.4046 753.795 62.3169 754.249 62.3169C755.218 62.3169 756.187 62.3169 757.157 62.3169C758.055 62.3169 758.939 62.4189 759.769 62.781C760.67 63.1737 761.345 63.7898 761.442 64.8057C761.58 66.2551 761.087 67.474 759.907 68.3879C759.572 68.633 759.211 68.8432 758.832 69.0152ZM754.859 74.7813V74.766C755.177 74.766 755.494 74.7793 755.81 74.766C757.334 74.6936 758.333 73.8235 758.608 72.3404C758.83 71.1348 758.239 70.3004 757.025 70.1189C756.266 70.0077 755.501 70.0924 754.74 70.0658C754.614 70.0658 754.607 70.1352 754.59 70.2209C754.505 70.636 754.418 71.0512 754.33 71.4653C754.116 72.4853 753.906 73.5053 753.684 74.5253C753.639 74.7293 753.678 74.8058 753.909 74.7905C754.224 74.766 754.542 74.7813 754.859 74.7813V74.7813ZM755.714 68.4155C756.04 68.4349 756.366 68.4164 756.687 68.3604C757.87 68.0921 758.773 67.0487 758.891 65.8104C758.985 64.8261 758.547 64.2406 757.574 64.0427C757.142 63.955 756.704 63.9795 756.27 63.952C755.971 63.9326 755.87 64.0223 755.813 64.3171C755.565 65.6146 755.29 66.9069 755.01 68.1992C754.966 68.4032 755.027 68.4267 755.2 68.4155C755.373 68.4043 755.542 68.4155 755.714 68.4155V68.4155Z" fill="white"/>
<path d="M770.822 67.5015C770.957 67.17 771.082 66.8895 771.185 66.607C771.214 66.4953 771.283 66.3977 771.378 66.3319C771.474 66.2662 771.59 66.2367 771.706 66.249C772.144 66.2581 772.582 66.249 773.019 66.249C773.344 66.249 773.439 66.3683 773.377 66.6753C772.896 69.0274 772.416 71.3799 771.935 73.7327C771.886 73.9225 771.869 74.1189 771.885 74.3141C771.93 74.6405 772.04 74.7558 772.369 74.7986C772.575 74.8251 772.662 74.9373 772.627 75.1291C772.568 75.4545 772.5 75.7788 772.421 76.1001C772.404 76.1982 772.351 76.2868 772.273 76.3492C772.195 76.4116 772.096 76.4434 771.996 76.4388C771.583 76.4578 771.171 76.4179 770.77 76.3204C770.136 76.1552 769.79 75.7503 769.71 75.0964C769.701 75.022 769.698 74.9465 769.69 74.8588C769.579 74.8853 769.54 74.9771 769.484 75.0403C768.207 76.4214 766.625 76.911 764.781 76.5938C763.539 76.3796 762.767 75.6115 762.489 74.3845C762.251 73.339 762.378 72.3067 762.592 71.2776C762.843 70.0536 763.266 68.8999 764.034 67.882C765.359 66.1082 767.493 65.7318 769.117 66.1347C769.868 66.3275 770.422 66.7783 770.822 67.5015ZM764.745 73.1574C764.746 73.3875 764.766 73.6172 764.805 73.8439C764.917 74.5212 765.294 74.8965 765.978 75.0097C767.317 75.2321 768.599 74.6558 769.265 73.4665C769.926 72.2688 770.248 70.9167 770.198 69.5527C770.175 68.5878 769.712 67.9891 768.892 67.7514C768.411 67.6207 767.906 67.6015 767.416 67.6953C766.549 67.8402 766.043 68.4154 765.689 69.1478C765.075 70.4146 764.857 71.7743 764.745 73.1574Z" fill="white"/>
<path d="M790.686 62.4036C790.401 63.7772 790.115 65.148 789.829 66.5162C789.545 67.8861 789.261 69.2559 788.975 70.635C789.109 70.6268 789.152 70.533 789.215 70.4718C790.502 69.21 791.79 67.9503 793.067 66.6794C793.197 66.5389 793.357 66.4285 793.535 66.356C793.713 66.2836 793.905 66.2508 794.097 66.2602C794.568 66.2775 795.041 66.2602 795.513 66.2694C795.616 66.2694 795.745 66.2418 795.791 66.3438C795.836 66.4458 795.71 66.5172 795.639 66.5825C794.06 68.0547 792.476 69.5242 790.887 70.9909C790.72 71.145 790.72 71.2408 790.838 71.4224C791.823 72.933 792.795 74.4518 793.775 75.9675C793.821 76.0389 793.868 76.1113 793.908 76.1848C793.992 76.3378 793.946 76.4449 793.771 76.4459C793.024 76.4459 792.277 76.453 791.532 76.4367C791.308 76.4367 791.179 76.2562 791.07 76.0716C790.329 74.8108 789.586 73.5528 788.839 72.2976C788.794 72.2211 788.772 72.1231 788.658 72.0701C788.446 73.0901 788.237 74.0968 788.025 75.1056C787.96 75.4218 787.897 75.738 787.825 76.0522C787.753 76.3663 787.632 76.451 787.324 76.453C786.844 76.453 786.363 76.453 785.882 76.453C785.454 76.453 785.373 76.3592 785.459 75.9522C785.722 74.6905 785.99 73.4287 786.254 72.166C786.832 69.4113 787.406 66.6607 787.975 63.9142C787.984 63.8442 788.011 63.7778 788.054 63.7213C788.096 63.6648 788.153 63.6202 788.218 63.5919C788.955 63.2308 789.685 62.8575 790.418 62.4913C790.496 62.4354 790.59 62.4048 790.686 62.4036Z" fill="white"/>
<path d="M777.997 67.8952C778.355 67.4217 778.767 66.9914 779.225 66.6131C780.308 65.7359 782.502 65.8726 783.519 66.7936C784.343 67.5413 784.567 68.4991 784.389 69.5374C784.157 70.8828 783.849 72.2149 783.58 73.5542C783.521 73.8449 783.466 74.1397 783.547 74.4375C783.604 74.6466 783.694 74.8149 783.959 74.8129C784.182 74.8129 784.268 74.9475 784.231 75.1505C784.172 75.4749 784.106 75.8002 784.03 76.1215C784.013 76.2157 783.961 76.3005 783.885 76.3601C783.81 76.4197 783.715 76.4502 783.618 76.4459C783.206 76.4682 782.793 76.4266 782.394 76.3225C781.467 76.0644 781.01 75.4045 781.055 74.3845C781.085 73.6919 781.29 73.0309 781.413 72.3557C781.58 71.4377 781.859 70.5401 781.91 69.6017C781.922 69.4156 781.922 69.2289 781.91 69.0427C781.838 68.0125 781.189 67.5209 780.169 67.6923C779.85 67.7433 779.545 67.8606 779.276 68.0364C779.006 68.2122 778.777 68.4425 778.603 68.7123C778.144 69.3793 777.949 70.1403 777.786 70.9175C777.431 72.6107 777.073 74.3039 776.712 75.9971C776.636 76.3541 776.513 76.4469 776.144 76.4479C775.647 76.4479 775.148 76.4479 774.651 76.4479C774.335 76.4479 774.239 76.3194 774.299 76.0114C774.779 73.6851 775.262 71.3588 775.747 69.0325C775.8 68.7755 775.864 68.5225 775.786 68.2533C775.724 68.0493 775.613 67.9167 775.374 67.8973C775.087 67.8738 775.025 67.7749 775.083 67.4893C775.14 67.2037 775.198 66.9232 775.258 66.6417C775.271 66.5344 775.324 66.4358 775.406 66.3651C775.488 66.2944 775.595 66.2566 775.704 66.2592C776.124 66.2325 776.546 66.2732 776.954 66.3795C777.633 66.5743 777.916 66.9181 777.984 67.6137C777.984 67.6872 777.984 67.7606 777.997 67.8952Z" fill="white"/>
<path d="M717.841 68.389H719.397C720.169 68.389 720.942 68.389 721.714 68.389C722.086 68.389 722.176 68.4971 722.102 68.8582C722.045 69.1407 721.983 69.4223 721.919 69.7038C721.838 70.0587 721.713 70.1567 721.323 70.1567C720.138 70.1567 718.954 70.1567 717.77 70.1485C717.545 70.1485 717.451 70.1913 717.402 70.4331C717.044 72.2303 716.663 74.0225 716.291 75.8177C716.188 76.3277 716.106 76.397 715.57 76.397C715.081 76.397 714.592 76.397 714.103 76.397C713.749 76.397 713.657 76.2838 713.73 75.939C714.162 73.8623 714.596 71.7863 715.03 69.7109C715.504 67.4431 715.977 65.1757 716.448 62.9085C716.563 62.3537 716.64 62.2863 717.219 62.2874L723.914 62.2996C724.392 62.2996 724.464 62.3863 724.366 62.8382C724.309 63.1034 724.254 63.3696 724.19 63.6338C724.111 63.9632 723.993 64.055 723.652 64.055C722.107 64.055 720.562 64.055 719.017 64.055C718.811 64.055 718.724 64.0928 718.681 64.31C718.413 65.6615 718.127 67.014 717.841 68.389Z" fill="white"/>
<path d="M738.102 76.653C737.287 76.6455 736.479 76.5077 735.708 76.245C735.436 76.1613 735.189 76.014 734.987 75.8155C734.781 75.6024 734.781 75.4075 734.961 75.1791C735.078 75.0332 735.209 74.8986 735.335 74.7578C735.644 74.4079 735.695 74.3957 736.159 74.5538C736.802 74.768 737.448 74.9618 738.131 74.9955C738.736 75.0271 739.33 75.0036 739.901 74.7731C740.125 74.6859 740.325 74.5446 740.48 74.3621C740.636 74.1796 740.743 73.9615 740.793 73.7276C740.889 73.3594 740.78 73.1054 740.454 72.9014C740.106 72.6994 739.735 72.5411 739.348 72.4302C738.909 72.2894 738.471 72.1374 738.025 72.0222C736.429 71.6009 736.044 70.4085 736.357 69.0509C736.728 67.4342 738.02 66.2969 739.737 66.0541C740.96 65.8838 742.167 65.9521 743.318 66.455C743.55 66.5455 743.763 66.6753 743.95 66.8385C744.141 67.0201 744.156 67.171 743.991 67.372C743.785 67.6147 743.571 67.8432 743.366 68.086C743.263 68.2053 743.15 68.1972 743.019 68.1594C742.517 68.0176 742.038 67.8004 741.522 67.7076C740.934 67.6056 740.345 67.5699 739.764 67.7351C739.513 67.8006 739.284 67.9289 739.098 68.1075C738.912 68.2861 738.776 68.5091 738.702 68.7551C738.516 69.3008 738.719 69.6904 739.274 69.8628C739.959 70.076 740.649 70.278 741.334 70.485C741.68 70.5803 742.013 70.7173 742.325 70.893C742.904 71.2347 743.191 71.7478 743.225 72.4036C743.316 74.1642 742.359 75.5606 740.596 76.246C739.839 76.5398 739.05 76.656 738.102 76.653Z" fill="white"/>
<path d="M746.711 67.778C746.397 67.778 746.08 67.778 745.764 67.778C745.397 67.778 745.315 67.6832 745.386 67.3354C745.436 67.0855 745.489 66.8366 745.549 66.5897C745.566 66.4875 745.621 66.3952 745.703 66.3306C745.785 66.266 745.888 66.2337 745.992 66.2399C746.275 66.2399 746.56 66.2235 746.842 66.2399C747.031 66.2531 747.089 66.1817 747.119 66.0083C747.197 65.5493 747.298 65.0903 747.387 64.6344C747.403 64.5507 747.411 64.4742 747.504 64.4304C748.352 64.0081 749.199 63.5817 750.07 63.1442C750.093 63.4185 750.003 63.648 749.959 63.8806C749.824 64.5946 749.677 65.2954 749.524 66.0012C749.484 66.1858 749.512 66.2562 749.725 66.245C750.075 66.2276 750.428 66.2368 750.78 66.245C751.064 66.2501 751.152 66.3521 751.102 66.6305C751.052 66.909 750.991 67.162 750.926 67.4251C750.861 67.6883 750.696 67.7893 750.438 67.7872C750.069 67.7872 749.699 67.7872 749.33 67.7872C749.199 67.7872 749.132 67.8168 749.103 67.9555C748.72 69.8527 748.334 71.7486 747.945 73.643C747.898 73.8603 747.909 74.0861 747.977 74.2979C748.029 74.4432 748.126 74.5684 748.255 74.6554C748.383 74.7425 748.536 74.7869 748.692 74.7824C749.373 74.7997 749.379 74.8059 749.249 75.4699C749.209 75.6739 749.164 75.885 749.115 76.0911C749.101 76.1853 749.053 76.2712 748.979 76.3329C748.906 76.3946 748.813 76.4279 748.717 76.4266C748.169 76.4399 747.615 76.4756 747.069 76.3797C745.997 76.19 745.467 75.5637 745.448 74.4744C745.436 73.7604 745.633 73.08 745.774 72.3905C746.083 70.8778 746.401 69.3662 746.714 67.8535C746.717 67.8283 746.716 67.8029 746.711 67.778V67.778Z" fill="white"/>
<path d="M732.49 67.3781C732.59 67.2514 732.696 67.1299 732.808 67.0139C733.578 66.2918 734.518 66.05 735.55 66.0694C735.756 66.0694 735.846 66.1347 735.79 66.3642C735.679 66.8171 735.593 67.2761 735.494 67.732C735.407 68.14 735.272 68.2074 734.861 68.1574C733.807 68.0299 732.655 68.3889 732.312 69.8914C731.854 71.9008 731.417 73.9153 730.973 75.9277C730.87 76.4082 730.779 76.4816 730.276 76.4806C729.822 76.4806 729.367 76.4806 728.913 76.4806C728.557 76.4806 728.47 76.3674 728.545 76.0206C729.051 73.6909 729.558 71.3619 730.065 69.0335C730.12 68.8281 730.147 68.6166 730.146 68.4042C730.129 68.0656 730.006 67.9248 729.663 67.8697C729.457 67.8371 729.36 67.7228 729.4 67.5148C729.459 67.2088 729.517 66.9028 729.587 66.5968C729.602 66.4938 729.654 66.3997 729.734 66.3323C729.814 66.265 729.916 66.2291 730.021 66.2316C730.552 66.2234 731.085 66.2316 731.601 66.3877C732.081 66.5325 732.376 66.8385 732.417 67.3546L732.49 67.3781Z" fill="white"/>
<path d="M723.479 74.6987C723.501 73.9714 723.713 73.2768 723.866 72.573C724.285 70.635 724.716 68.697 725.143 66.759C725.221 66.403 725.349 66.3061 725.709 66.3041C726.19 66.3041 726.671 66.3041 727.151 66.3041C727.513 66.3041 727.601 66.4061 727.525 66.7519C727.019 69.0734 726.511 71.3942 726.002 73.7144C725.932 73.9954 725.907 74.2855 725.927 74.5743C725.958 74.8996 726.074 75.023 726.391 75.07C726.581 75.0985 726.668 75.2097 726.636 75.3882C726.577 75.7228 726.509 76.0553 726.43 76.3848C726.411 76.4729 726.361 76.5515 726.29 76.6073C726.218 76.6631 726.129 76.6926 726.038 76.6908C725.523 76.7071 725.008 76.6663 724.524 76.4633C723.806 76.1675 723.461 75.5698 723.479 74.6987Z" fill="white"/>
<path d="M759.464 82.6669C760.333 83.1555 760.409 84.1357 759.67 84.8426C759.13 85.3628 757.952 85.5301 757.282 85.1833C757.126 85.1089 756.995 84.9919 756.903 84.8461C756.812 84.7002 756.765 84.5316 756.767 84.3601C756.747 84.0657 756.81 83.7716 756.951 83.5114C757.091 83.2511 757.303 83.0352 757.561 82.8883C757.69 82.8087 757.831 82.7485 757.965 82.6843C757.965 82.6649 757.965 82.6414 757.957 82.6373C757.224 82.262 757.387 81.5735 757.77 81.0339C757.964 80.7809 758.241 80.6036 758.554 80.5331C758.904 80.4417 759.27 80.4277 759.625 80.4923C759.967 80.5484 760.28 80.6891 760.386 81.0522C760.451 81.2457 760.465 81.4524 760.426 81.6525C760.387 81.8527 760.297 82.0397 760.165 82.1957C759.983 82.4078 759.742 82.5353 759.464 82.6669ZM757.645 84.1051C757.637 84.2505 757.684 84.3935 757.777 84.5066C757.869 84.6196 758.001 84.6946 758.146 84.7171C758.827 84.862 759.485 84.1724 759.315 83.4931C759.288 83.3588 759.215 83.238 759.108 83.1512C759.001 83.0644 758.866 83.0169 758.728 83.0168C758.148 82.9923 757.643 83.4982 757.645 84.1051V84.1051ZM759.069 81.0777C758.971 81.0771 758.873 81.0956 758.782 81.1323C758.691 81.169 758.608 81.2232 758.538 81.2917C758.468 81.3602 758.412 81.4417 758.374 81.5315C758.336 81.6213 758.316 81.7177 758.315 81.8152C758.311 81.8829 758.32 81.9508 758.343 82.0149C758.366 82.0789 758.401 82.1378 758.447 82.1882C758.493 82.2385 758.549 82.2793 758.611 82.3081C758.673 82.3369 758.74 82.3531 758.808 82.3558C759.184 82.3619 759.581 81.9478 759.589 81.549C759.594 81.2695 759.384 81.0798 759.069 81.0777V81.0777Z" fill="white"/>
<path d="M764.227 81.4102C764.206 81.1832 764.11 80.9693 763.954 80.8017C763.798 80.6342 763.59 80.5222 763.363 80.483C763.041 80.4259 762.709 80.4516 762.399 80.5575C761.511 80.8747 761.189 81.5908 761.105 82.4363C761.018 83.3462 761.551 83.8154 762.472 83.7093C762.82 83.6685 763.06 83.4757 763.308 83.2503C763.283 83.5472 763.188 83.8342 763.03 84.0877C762.764 84.5651 762.365 84.8078 761.801 84.714C761.614 84.6928 761.429 84.6538 761.25 84.5977C760.941 84.4825 760.933 84.7528 760.846 84.8925C760.737 85.0669 760.927 85.1047 761.028 85.1536C761.88 85.5728 762.815 85.3923 763.397 84.6273C764.126 83.6818 764.382 82.5853 764.227 81.4102ZM763.49 81.8621C763.452 82.1491 763.359 82.4262 763.215 82.6781C763.052 82.9423 762.829 83.1014 762.5 83.0861C762.088 83.0759 761.908 82.8933 761.917 82.4261C761.936 82.1491 762.009 81.8783 762.131 81.6285C762.208 81.4568 762.336 81.3124 762.498 81.2144C762.738 81.0767 763.003 81.0022 763.251 81.1593C763.499 81.3164 763.536 81.5867 763.49 81.8621V81.8621Z" fill="white"/>
<path d="M766.551 84.15H764.728C764.476 84.15 764.427 84.0715 764.543 83.844C764.588 83.7632 764.644 83.6884 764.709 83.6217C765.543 82.6751 766.389 81.7398 767.206 80.78C767.446 80.4974 767.721 80.527 768.019 80.5423C768.187 80.5505 768.122 80.6882 768.102 80.7779C767.957 81.4838 767.81 82.1889 767.661 82.8934C767.636 83.0526 767.602 83.2103 767.558 83.3657C767.5 83.5452 767.58 83.5554 767.728 83.5635C767.845 83.5697 768.052 83.4615 768.047 83.7165C768.039 84.0633 767.963 84.1735 767.702 84.146C767.44 84.1184 767.348 84.2214 767.332 84.452C767.32 84.5358 767.303 84.6189 767.281 84.7008C767.153 85.3251 767.153 85.32 766.509 85.2853C766.349 85.2761 766.32 85.2129 766.349 85.0813C766.416 84.7824 766.479 84.4836 766.551 84.15ZM767.033 81.8204L765.565 83.5544C765.938 83.5544 766.242 83.5544 766.546 83.5544C766.565 83.5569 766.584 83.5556 766.602 83.5504C766.621 83.5452 766.638 83.5363 766.653 83.5242C766.667 83.5121 766.679 83.4971 766.688 83.4802C766.697 83.4633 766.701 83.4447 766.702 83.4258C766.805 82.9158 766.912 82.4038 767.032 81.8193L767.033 81.8204Z" fill="white"/>
<path d="M737.17 85.3413C736.777 85.3408 736.388 85.2646 736.024 85.1169C735.933 85.0782 735.755 85.0547 735.836 84.9129C735.918 84.7712 735.932 84.4958 736.223 84.5641C736.62 84.6686 737.031 84.7187 737.442 84.713C737.658 84.708 737.87 84.6517 738.06 84.5488C738.539 84.2836 738.557 83.7777 738.083 83.5013C737.85 83.3787 737.609 83.271 737.362 83.1789C736.345 82.7454 736.157 81.7632 736.963 81.0023C737.612 80.3903 738.394 80.3382 739.221 80.5484C739.295 80.5677 739.367 80.5943 739.44 80.6187C739.833 80.7524 739.84 80.7809 739.626 81.1165C739.615 81.1411 739.599 81.1633 739.579 81.1817C739.559 81.2002 739.536 81.2146 739.51 81.2241C739.485 81.2336 739.458 81.2379 739.43 81.237C739.403 81.236 739.377 81.2298 739.352 81.2185C738.95 81.0944 738.527 81.0487 738.108 81.0839C737.965 81.0926 737.827 81.1347 737.704 81.2067C737.582 81.2787 737.478 81.3786 737.402 81.498C737.196 81.8295 737.272 82.1304 737.623 82.3007C737.861 82.416 738.113 82.5047 738.356 82.6067C739.404 83.0474 739.553 84.2061 738.652 84.9017C738.278 85.1873 737.782 85.3383 737.17 85.3413Z" fill="white"/>
<path d="M743.248 82.3629C743.488 82.1069 743.689 81.8652 744.024 81.7917C744.931 81.5939 745.558 82.1936 745.372 83.0932C745.286 83.5165 745.194 83.9388 745.112 84.3631C745.083 84.5141 745.065 84.6498 745.27 84.7334C745.431 84.7987 745.292 84.9568 745.287 85.073C745.289 85.0984 745.285 85.1239 745.277 85.1479C745.268 85.172 745.255 85.194 745.237 85.2126C745.22 85.2312 745.199 85.246 745.175 85.256C745.151 85.2661 745.126 85.2711 745.1 85.2709C744.538 85.3342 744.186 84.9761 744.284 84.4213C744.359 84.0041 744.449 83.59 744.532 83.1738C744.547 83.1067 744.556 83.0385 744.559 82.9698C744.567 82.7281 744.559 82.4833 744.301 82.3578C744.078 82.2487 743.729 82.3415 743.529 82.5618C743.33 82.7821 743.238 83.0718 743.176 83.3676C743.057 83.9317 742.933 84.4947 742.821 85.0608C742.82 85.0921 742.812 85.1229 742.798 85.151C742.784 85.1792 742.764 85.2042 742.74 85.2243C742.716 85.2444 742.688 85.2592 742.657 85.2678C742.627 85.2763 742.595 85.2784 742.563 85.274C741.961 85.2883 741.962 85.2934 742.083 84.7089C742.217 84.0609 742.35 83.4132 742.482 82.7658C742.514 82.6077 742.559 82.4404 742.323 82.3813C742.22 82.3548 742.243 82.2579 742.27 82.1905C742.317 82.0732 742.258 81.9029 742.44 81.8519C742.527 81.8246 742.619 81.8166 742.71 81.8284C742.801 81.8402 742.887 81.8716 742.965 81.9203C743.042 81.9691 743.107 82.034 743.156 82.1104C743.205 82.1869 743.237 82.2731 743.248 82.3629V82.3629Z" fill="white"/>
<path d="M750.968 83.8379C750.746 83.8379 750.521 83.8491 750.3 83.8379C750.135 83.8277 750.094 83.8971 750.094 84.0419C750.072 84.5784 750.365 84.863 750.901 84.7977C751.122 84.7702 751.339 84.721 751.55 84.6508C751.714 84.5968 751.775 84.6508 751.84 84.7885C751.904 84.9262 751.876 85.0323 751.737 85.1017C751.313 85.3145 750.836 85.4003 750.365 85.3485C749.566 85.271 749.205 84.813 749.28 84.0174C749.312 83.5851 749.427 83.1628 749.619 82.773C750.013 81.9948 750.752 81.6357 751.598 81.804C752.091 81.906 752.381 82.2253 752.406 82.722C752.414 82.8747 752.404 83.0278 752.375 83.178C752.272 83.6696 752.066 83.8359 751.56 83.8461C751.364 83.8461 751.166 83.8461 750.969 83.8461L750.968 83.8379ZM750.23 83.28H751.329C751.371 83.2849 751.413 83.278 751.452 83.2599C751.49 83.2419 751.522 83.2135 751.545 83.178C751.656 82.9893 751.604 82.5935 751.442 82.4385C751.28 82.2834 751.039 82.2712 750.8 82.4058C750.465 82.5925 750.343 82.926 750.23 83.28V83.28Z" fill="white"/>
<path d="M727.243 62.424C727.517 62.424 727.791 62.4179 728.067 62.424C728.316 62.4311 728.414 62.5443 728.367 62.781C728.26 63.3127 728.146 63.8425 728.027 64.3701C727.964 64.6425 727.821 64.7536 727.533 64.7557C727.018 64.7557 726.503 64.7557 725.988 64.7557C725.666 64.7506 725.576 64.6292 725.645 64.3191C725.748 63.8224 725.859 63.3257 725.971 62.831C726.038 62.5352 726.171 62.4301 726.471 62.423C726.727 62.423 726.986 62.423 727.241 62.423L727.243 62.424Z" fill="white"/>
<path d="M755.387 81.5153C755.109 81.6296 754.859 81.7326 754.608 81.8316C754.546 81.856 754.457 81.8989 754.419 81.8744C754.344 81.8275 754.403 81.7346 754.407 81.6612C754.423 81.396 754.56 81.242 754.819 81.1451C755.291 80.9656 755.746 80.7524 756.213 80.5555C756.281 80.526 756.356 80.4535 756.419 80.4964C756.482 80.5392 756.428 80.6382 756.419 80.7075C756.123 82.1457 755.823 83.5829 755.53 85.0211C755.491 85.2138 755.404 85.2832 755.201 85.2801C754.615 85.272 754.619 85.2801 754.74 84.7141C754.954 83.7104 755.162 82.7047 755.372 81.7C755.38 81.652 755.379 81.6 755.387 81.5153Z" fill="white"/>
<path d="M746.045 84.1214C746.055 83.6528 746.168 83.192 746.376 82.7709C746.806 81.8835 747.951 81.4847 748.826 81.9213C748.937 81.9774 749.144 82.0059 749.071 82.2089C748.987 82.4353 748.785 82.5322 748.585 82.4384C747.797 82.0712 747.24 82.5333 747.028 83.184C746.915 83.5049 746.863 83.8439 746.876 84.1836C746.903 84.6059 747.167 84.8303 747.597 84.7956C747.801 84.769 748.001 84.7183 748.192 84.6447C748.295 84.611 748.388 84.5784 748.441 84.7201C748.484 84.8374 748.567 84.9394 748.426 85.0588C747.992 85.425 746.874 85.4535 746.428 85.1006C746.102 84.8497 746.036 84.4988 746.045 84.1214Z" fill="white"/>
<path d="M739.937 84.5039C740.032 84.0358 740.143 83.4839 740.259 82.924C740.319 82.6333 740.389 82.3446 740.441 82.0529C740.441 82.0215 740.449 81.9907 740.463 81.9624C740.476 81.9341 740.496 81.909 740.52 81.8888C740.544 81.8686 740.573 81.8537 740.603 81.845C740.634 81.8364 740.666 81.8342 740.697 81.8387C741.306 81.8203 741.303 81.8152 741.181 82.3966C741.046 83.0443 740.912 83.691 740.784 84.3397C740.753 84.4968 740.723 84.6457 740.944 84.7304C741.101 84.7895 740.968 84.9344 740.963 85.0476C740.958 85.1608 740.927 85.2434 740.796 85.2689C740.333 85.3587 739.937 85.0496 739.937 84.5039Z" fill="white"/>
<path d="M741.186 80.3832C741.289 80.3832 741.369 80.3832 741.445 80.3832C741.521 80.3832 741.59 80.4158 741.575 80.5015C741.539 80.6923 741.496 80.881 741.449 81.0686C741.43 81.14 741.364 81.1645 741.292 81.1778C740.685 81.2859 740.615 81.2012 740.738 80.6107C740.801 80.2904 741.034 80.4107 741.186 80.3832Z" fill="white"/>
<path d="M758.36 37.684C756.02 37.582 753.715 37.2892 751.508 36.46C749.595 35.746 747.922 34.6841 746.686 33.0338C745.576 31.5576 744.961 29.7741 744.927 27.9338C744.866 25.9397 745.308 24.0231 745.892 22.1341C746.011 21.7516 746.271 21.5904 746.74 21.569C747.285 21.5425 747.813 21.671 748.347 21.7465C750.179 22.0035 752.014 22.2503 753.839 22.5512C754.403 22.6441 754.881 22.589 755.331 22.2554C755.882 21.8474 756.504 21.774 757.176 21.8046C758.333 21.8433 759.483 22.0023 760.607 22.2789C760.725 22.2996 760.837 22.3478 760.932 22.4197C762.558 23.8211 764.145 25.2614 765.487 26.9423C766.095 27.7033 766.093 27.7094 765.969 28.6763C765.956 28.754 765.962 28.8335 765.985 28.9088C766.008 28.9842 766.048 29.0532 766.102 29.1109C766.658 29.78 767.176 30.4787 767.721 31.156C768.481 32.1015 768.841 33.1858 768.974 34.3628C769.033 34.8858 769.086 35.4097 769.131 35.9347C769.155 36.2121 769.14 36.2182 768.88 36.0836C768.177 35.7111 767.499 35.2951 766.849 34.8382C766.142 34.3547 765.45 33.8539 764.78 33.3224C764.576 33.1574 764.33 33.0515 764.069 33.0164C763.305 32.8924 762.522 32.9963 761.818 33.3147C761.114 33.6331 760.522 34.1517 760.117 34.8045C759.986 35.0146 759.985 35.1523 760.198 35.2808C760.234 35.3053 760.269 35.3326 760.301 35.3624C760.788 35.7806 760.789 35.7817 760.524 36.3824C760.487 36.4671 760.443 36.5507 760.4 36.6334C760.019 37.3474 759.537 37.9033 758.595 37.6911C758.517 37.6802 758.439 37.6779 758.36 37.684ZM760.857 28.7885L759.466 27.2422C759.349 27.1127 759.285 27.2422 759.217 27.2973C758.513 27.9052 757.81 28.5152 757.108 29.1272C757.048 29.1792 756.96 29.2139 756.947 29.3261L760.857 28.7885Z" fill="#162D4C"/>
<path d="M758.151 50.2024L757.285 49.5904C754.941 47.9462 752.598 46.3009 750.256 44.6546C750.182 44.5946 750.092 44.5565 749.996 44.5446C749.901 44.5327 749.804 44.5475 749.717 44.5873C747.955 45.1993 746.188 45.794 744.432 46.4233C744.066 46.5539 743.741 46.4458 743.402 46.4101C742.872 46.355 742.872 46.3489 742.984 45.8276C743.869 41.6504 744.756 37.4745 745.642 33.3C745.652 33.2531 745.665 33.2061 745.676 33.1582C745.779 33.1817 745.803 33.2653 745.843 33.3234C747.845 36.2682 750.652 37.9981 754.134 38.708C755.472 38.9742 756.833 39.1078 758.197 39.1068C758.403 39.1068 758.456 39.1711 758.468 39.3629C758.504 39.9392 758.557 40.5144 758.611 41.0897C758.634 41.3005 758.616 41.5137 758.559 41.718C758.408 42.2403 758.27 42.7656 758.117 43.2868C758.095 43.3536 758.088 43.4247 758.098 43.4945C758.108 43.5643 758.135 43.6308 758.175 43.6887C759.089 45.1463 759.993 46.6079 760.904 48.0665C760.987 48.194 761.034 48.3419 761.038 48.4939C761.064 49.3344 761.097 50.1749 761.132 51.0154C761.139 51.1419 761.116 51.2682 761.065 51.3846C760.672 52.3342 760.289 53.2879 759.888 54.2345C759.762 54.5129 759.697 54.8147 759.697 55.1198C759.697 55.3901 759.671 55.6604 759.655 55.9236C759.579 55.9593 759.546 55.9073 759.51 55.8767C758.068 54.6935 756.636 53.5062 755.193 52.3281C755.024 52.1904 755.033 52.1333 755.214 52.0221C756.112 51.4754 757.004 50.9185 757.897 50.3636C757.972 50.3197 758.043 50.2728 758.151 50.2024Z" fill="#162D4C"/>
<path d="M749.918 45.5542C750.002 45.5627 750.08 45.6011 750.138 45.6623C751.48 46.5926 752.822 47.5218 754.164 48.45C754.321 48.5571 754.36 48.654 754.319 48.8457C753.907 50.7837 753.519 52.736 753.118 54.6801C753.079 54.8446 753.104 55.0174 753.188 55.1646C753.351 55.4706 753.497 55.7858 753.646 56.0939C753.57 56.1765 753.489 56.1438 753.417 56.1438C751.779 56.1438 750.14 56.1438 748.5 56.151C748.43 56.1584 748.359 56.1415 748.299 56.1033C748.24 56.065 748.196 56.0077 748.174 55.9409C748.055 55.6777 747.928 55.4176 747.783 55.1667C747.739 55.0956 747.714 55.0144 747.711 54.9309C747.707 54.8474 747.726 54.7646 747.765 54.6903C748.447 53.0879 749.118 51.4814 749.798 49.879C749.881 49.6856 749.923 49.4772 749.921 49.267C749.913 48.0338 749.918 46.8027 749.918 45.5542Z" fill="#162D4C"/>
<path d="M772.593 39.6852C769.563 39.6852 766.797 38.7876 764.226 37.2372C763.317 36.6907 762.459 36.0642 761.663 35.3655C761.511 35.2329 761.514 35.1401 761.63 34.9942C762.254 34.2027 763.092 33.9824 764.057 34.0833C764.395 34.1233 764.716 34.2542 764.984 34.4618C767.053 35.9673 769.289 37.1393 771.798 37.7564C773.207 38.1008 774.665 38.2064 776.109 38.0685C776.45 38.0379 776.795 38.044 777.139 38.0471C777.282 38.0471 777.448 38.0593 777.514 38.2143C777.585 38.3887 777.475 38.5203 777.354 38.6397C777.097 38.8667 776.793 39.0349 776.464 39.1323C775.393 39.4995 774.281 39.6372 773.155 39.6821C772.97 39.6913 772.781 39.6852 772.593 39.6852Z" fill="#162D4C"/>
<path d="M764.924 38.5856C765.934 39.1637 767.018 39.6052 768.146 39.8983C768.428 39.9735 768.713 40.0321 769.001 40.0738C769.171 40.0962 769.193 40.1676 769.176 40.3063C769.144 40.7296 769.049 41.1459 768.893 41.5415C768.284 42.944 767.588 44.3088 767.002 45.7235C766.758 46.3121 766.506 46.8976 766.384 47.5259C766.242 48.2399 766.742 48.7591 767.469 48.6295C767.664 48.5948 767.723 48.6418 767.759 48.8213C767.813 49.1049 767.841 49.3926 767.845 49.6812C767.851 49.7485 767.835 49.816 767.8 49.8739C767.765 49.9318 767.712 49.9772 767.649 50.0035C766.84 50.4166 766.071 50.2687 765.371 49.7832C764.628 49.2681 764.341 48.4867 764.297 47.6197C764.24 46.5467 764.383 45.4838 764.523 44.422C764.704 43.0593 764.999 41.7129 765.135 40.342C765.179 39.8953 765.032 39.4689 764.992 39.0303C764.975 38.8957 764.95 38.76 764.924 38.5856Z" fill="#162D4C"/>
<path d="M760.857 28.7884L756.943 29.326C756.956 29.2138 757.046 29.1791 757.104 29.1271C757.805 28.5151 758.508 27.9051 759.213 27.2972C759.281 27.2391 759.345 27.1126 759.461 27.2421L760.857 28.7884Z" fill="#DCAA10"/>
<path d="M958.522 9.54211C961.335 9.58121 964.019 10.115 966.526 11.39C968.736 12.5214 970.538 14.1032 971.768 16.2835C972.567 17.7228 973.092 19.2983 973.314 20.9296C973.771 24.061 973.309 27.0904 972.276 30.0526C971.669 31.79 970.829 33.4195 969.92 35.02C968.067 38.2781 965.686 41.1018 962.917 43.605C959.364 46.8197 955.468 49.6335 951.299 51.9954C949.684 52.9074 948.01 53.6733 946.208 54.1416C945.105 54.4396 943.966 54.5838 942.823 54.57C941.318 54.5394 940.141 53.8543 939.226 52.7C938.38 51.664 937.945 50.3537 938.002 49.0178C938.012 48.6462 938.065 48.277 938.161 47.9179C938.706 45.9825 939.447 44.1286 940.553 42.438C941.399 41.1468 942.407 40.0002 943.726 39.1799C945.192 38.267 946.786 37.8769 948.509 38.2534C949.048 38.3798 949.555 38.6156 949.999 38.9462C951.134 39.7571 951.075 41.0295 950.53 41.8421C950.063 42.5483 949.541 43.2165 948.969 43.8405C948 44.8843 946.971 45.8711 945.966 46.8809C945.077 47.7743 944.241 48.7118 943.564 49.7803C943.213 50.3345 942.889 50.8997 942.792 51.5653C942.67 52.4 943.103 52.9686 943.946 53.0468C944.382 53.0824 944.82 53.0383 945.24 52.9168C946.535 52.5589 947.737 51.9818 948.917 51.3596C950.738 50.3965 952.418 49.2193 954.056 47.9774C956.042 46.4721 957.972 44.9021 959.751 43.1562C961.778 41.1698 963.584 39.0108 964.966 36.5194C965.976 34.7004 966.72 32.7794 967.05 30.719C967.343 28.9043 967.18 27.1363 966.339 25.4703C965.934 24.6468 965.301 23.9572 964.515 23.4838C964.152 23.2653 963.752 23.116 963.334 23.0435C961.815 22.7741 960.346 22.9951 958.901 23.477C957.396 23.9802 956 24.7146 954.642 25.517C951.696 27.2646 948.746 29.0114 945.939 30.9791C944.531 31.9651 943.167 33.014 941.788 34.0391C940.541 34.9656 939.304 35.9032 937.942 36.6605C936.837 37.2898 935.641 37.7437 934.397 38.0061C932.855 38.3189 931.434 38.0282 930.128 37.1901C928.773 36.3205 927.825 35.1271 927.408 33.5478C927.143 32.5508 927.247 31.5622 927.476 30.5779C927.81 29.1329 928.444 27.8239 929.235 26.5829C931.19 23.5178 933.648 20.9177 936.506 18.6949C940.743 15.4012 945.404 12.8648 950.446 11.0296C953.035 10.0827 955.765 9.57978 958.522 9.54211V9.54211Z" fill="#E20010"/>
<path d="M923.668 79.6195C923.654 78.6573 923.544 77.792 922.988 77.0415C922.717 76.6788 922.343 76.4072 921.914 76.2629C920.809 75.8668 919.683 75.9135 918.586 76.2527C917.706 76.5247 916.858 76.8953 915.997 77.2259C915.827 77.2888 915.672 77.3696 915.466 77.4614C915.061 76.4558 914.662 75.48 914.245 74.46C914.849 74.1736 915.419 73.8812 916.006 73.6304C917.359 73.0516 918.763 72.6546 920.238 72.5654C921.714 72.4761 923.17 72.5543 924.513 73.27C926.032 74.0741 927.128 75.2352 927.587 76.925C927.654 77.1462 927.693 77.3745 927.706 77.605C927.764 79.7989 927.843 81.9927 927.853 84.1866C927.859 85.686 927.76 87.1862 927.716 88.6865C927.708 88.8922 927.622 89.0872 927.476 89.2322C926.426 90.3882 925.142 91.1872 923.687 91.7235C922.126 92.2929 920.465 92.5317 918.807 92.4248C917.277 92.3398 915.956 91.7133 914.839 90.6738C913.722 89.6342 912.942 88.3788 912.724 86.8403C912.427 84.7331 913.035 82.9048 914.549 81.4003C915.523 80.433 916.724 79.9332 918.076 79.7564C919.572 79.5617 921.073 79.6136 922.574 79.6178L923.668 79.6195ZM923.472 83.045C923.384 83.0276 923.294 83.0154 923.205 83.0085C922.695 82.9983 922.179 82.9804 921.666 82.9881C921.052 82.9974 920.435 83 919.824 83.0578C919.192 83.1181 918.579 83.3026 918.09 83.7242C917.277 84.4246 917.036 85.3392 917.234 86.3702C917.48 87.6452 918.192 88.536 919.462 88.9151C920.117 89.111 920.81 89.1402 921.479 89.0001C922.101 88.8863 922.681 88.6081 923.159 88.1943C923.24 88.1316 923.306 88.0522 923.354 87.9616C923.402 87.871 923.429 87.7712 923.435 87.669C923.455 87.2211 923.513 86.774 923.516 86.326C923.523 85.3001 923.507 84.2741 923.499 83.2482C923.494 83.18 923.485 83.1122 923.472 83.045V83.045Z" fill="#E20010"/>
<path d="M974.793 82.96C971.147 82.96 967.568 82.8818 963.939 82.977C963.958 83.232 963.969 83.4734 963.992 83.7089C964.086 84.6719 964.293 85.6078 964.7 86.4909C965.017 87.2113 965.508 87.8412 966.13 88.3235C967.116 89.0724 968.241 89.1948 969.422 89.0426C970.398 88.9168 971.306 88.5598 972.212 88.2003C972.628 88.0362 973.04 87.8603 973.487 87.6775C973.912 88.5666 974.329 89.4404 974.762 90.3397C974.683 90.3975 974.608 90.4621 974.524 90.5097C972.756 91.5586 970.858 92.2344 968.807 92.4129C966.937 92.5752 965.152 92.2684 963.537 91.2339C962.437 90.5293 961.667 89.5339 961.022 88.4204C960.229 87.0351 959.748 85.4927 959.615 83.9018C959.345 81.0011 959.961 78.3003 961.463 75.7996C962.51 74.0614 964.073 73.117 966.03 72.7915C967.828 72.4752 969.681 72.7835 971.28 73.6653C972.176 74.1506 972.8 74.9148 973.314 75.7716C973.994 76.9012 974.352 78.1465 974.524 79.4368C974.663 80.4772 974.707 81.5303 974.791 82.5818C974.801 82.6897 974.793 82.8019 974.793 82.96ZM970.373 79.6578C970.161 78.6879 970.017 77.6968 969.382 76.8749C969.064 76.4664 968.616 76.1776 968.113 76.0555C966.774 75.701 965.429 76.3181 964.853 77.5855C964.647 78.0368 964.527 78.5273 964.377 79.0024C964.31 79.2175 964.267 79.441 964.213 79.6578C964.573 79.753 970.005 79.7572 970.375 79.6603L970.373 79.6578Z" fill="#E20010"/>
<path d="M950.872 68.1454L955.223 67.4722V72.8161C956.188 72.8739 957.108 72.811 958.033 72.9105V76.2025C957.098 76.2178 956.182 76.1898 955.228 76.2476C955.228 76.4329 955.228 76.5714 955.228 76.71C955.22 79.8788 955.213 83.0479 955.207 86.2172C955.207 86.7162 955.247 87.216 955.292 87.7132C955.364 88.4782 955.788 88.9636 956.529 89.1497C956.938 89.2534 957.358 89.3121 957.773 89.3911L958.189 89.4761V92.2701C958.142 92.2932 958.093 92.3098 958.041 92.3194C956.806 92.3746 955.576 92.3423 954.382 91.9794C953.216 91.6275 952.243 90.99 951.584 89.9394C951.209 89.3444 951.019 88.6754 950.936 87.9844C950.886 87.5515 950.862 87.1162 950.863 86.6805C950.863 80.6625 950.866 74.645 950.873 68.6282L950.872 68.1454Z" fill="#E20010"/>
<path d="M977.185 68.1487L981.392 67.4194V68C981.392 73.4655 981.395 78.931 981.399 84.3965C981.399 85.3969 981.408 86.3974 981.415 87.3987C981.422 88.3864 981.783 88.8896 982.726 89.1837C983.047 89.2723 983.372 89.3422 983.701 89.3928C983.902 89.4302 984.105 89.448 984.349 89.4778V92.3321C984.326 92.3509 984.299 92.364 984.271 92.3703C983.075 92.4188 981.885 92.3992 980.723 92.0592C980.019 91.8566 979.364 91.513 978.797 91.0494C977.74 90.185 977.31 89.0264 977.199 87.72C977.167 87.3375 977.171 86.9507 977.172 86.5665C977.172 80.5876 977.176 74.6093 977.185 68.6315V68.1487Z" fill="#E20010"/>
<path d="M942.412 92.0797H938.162C938.157 91.902 938.149 91.7397 938.148 91.5791C938.143 89.0257 938.14 86.4723 938.137 83.9189C938.132 81.8789 938.119 79.8389 938.12 77.7989C938.121 77.4289 938.15 77.0596 938.205 76.6939C938.268 76.2765 938.486 75.9289 938.79 75.6356C940.459 74.0104 942.459 73.0363 944.74 72.6164C946.169 72.3543 947.634 72.3523 949.064 72.6105C949.139 72.6241 949.215 72.6411 949.289 72.6598C949.325 72.6691 949.36 72.687 949.431 72.7142C948.948 73.9416 948.36 75.1146 947.806 76.274C947.143 76.274 946.516 76.2544 945.89 76.2782C944.81 76.3141 943.75 76.5783 942.779 77.0534C942.503 77.1886 942.4 77.3569 942.401 77.6739C942.413 82.3206 942.416 86.9672 942.41 91.6139L942.412 92.0797Z" fill="#E20010"/>
<path d="M935.027 72.9963C935.073 79.3645 935.023 85.6953 935.064 92.0652H930.905C930.895 91.9114 930.874 91.7507 930.874 91.5901C930.874 87.5866 930.874 83.5825 930.874 79.5779C930.874 77.7427 930.89 75.9076 930.897 74.0724C930.897 73.933 930.897 73.7936 930.897 73.6185L935.027 72.9963Z" fill="#E20010"/>
<path d="M932.775 71.122C930.744 71.1169 929.473 69.0956 930.315 67.1874C930.833 66.0169 931.722 65.5724 933.004 65.5801C934.723 65.5945 935.997 67.3038 935.588 68.9741C935.26 70.3086 934.189 71.1254 932.775 71.122Z" fill="#E20010"/>
<defs>
<clipPath id="clip0_1_59">
<rect width="117" height="46" fill="white" transform="translate(0 28)"/>
</clipPath>
<clipPath id="clip1_1_59">
<rect width="179" height="45" fill="white" transform="translate(217 28.5)"/>
</clipPath>
</defs>
</svg>
