<svg width="25" height="24" viewBox="0 0 25 24" fill="none" xmlns="http://www.w3.org/2000/svg">
<g clip-path="url(#clip0_1_153)">
<path d="M24.05 14.3475C23.7837 14.0212 23.1462 13.5937 21.8862 14.4112C20.5887 15.2062 19.1337 16.0537 18.53 16.35C18.08 15.3937 17.255 15.2325 16.835 15.3C13.28 15.9187 11.9225 14.85 11.9187 14.85C11.8362 14.775 9.88625 13.0612 7.7075 14.2312C6.53375 14.8612 5.7725 15.0262 5.3825 15.0675V14.49C5.3825 14.2837 5.21375 14.115 5.0075 14.115H3.035C2.82875 14.115 2.66 14.2837 2.66 14.49V14.9025H1.0625C0.85625 14.9025 0.6875 15.0712 0.6875 15.2775C0.6875 15.4837 0.85625 15.6525 1.0625 15.6525H2.66V19.635H1.0625C0.85625 19.635 0.6875 19.8037 0.6875 20.01C0.6875 20.2162 0.85625 20.385 1.0625 20.385H2.66V20.7975C2.66 21.0037 2.82875 21.1725 3.035 21.1725H5.0075C5.21375 21.1725 5.3825 21.0037 5.3825 20.7975V20.7487H5.90375C5.92625 20.7487 8.02625 20.8237 10.0925 21.7087C11.36 22.2525 12.7137 22.5375 13.8125 22.5375C14.5587 22.5375 15.185 22.4062 15.59 22.1362C15.8375 21.9825 21.6537 18.33 23.9337 16.0125C24.3912 15.5475 24.4437 14.8312 24.05 14.3475ZM4.62875 20.4225H3.41V14.865H4.6325V20.4225H4.62875ZM23.3975 15.4875C21.1775 17.7412 15.2487 21.465 15.1812 21.5062C14.4912 21.9637 12.4625 21.9075 10.385 21.0187C8.18375 20.0775 6.01625 20.0025 5.91125 19.9987H5.37875V15.8212C5.8625 15.7837 6.74 15.6 8.06 14.8912C9.77 13.9725 11.3525 15.3487 11.4237 15.4125C11.4875 15.465 13.0137 16.725 16.9587 16.0387C16.985 16.035 17.6225 15.9487 17.9337 16.8675C17.9075 17.0925 17.6937 18.045 15.9912 18.1237H11.0937C10.8875 18.1237 10.7187 18.2925 10.7187 18.4987C10.7187 18.705 10.8875 18.8737 11.0937 18.8737H16.01C18.0237 18.7837 18.5225 17.655 18.6462 17.1112C19.1375 16.92 20.1237 16.3725 22.2875 15.045C22.6962 14.7787 23.2325 14.5275 23.4687 14.82C23.615 15.0037 23.585 15.2962 23.3975 15.4875Z" fill="#80B918"/>
<path d="M14.1387 14.0738C17.615 14.0738 20.4425 11.2463 20.4425 7.77006C20.4425 4.29381 17.615 1.46631 14.1387 1.46631C10.6625 1.46631 7.835 4.29381 7.835 7.77006C7.835 11.2463 10.6625 14.0738 14.1387 14.0738ZM14.1387 2.21256C17.2025 2.21256 19.6925 4.70631 19.6925 7.76631C19.6925 10.8263 17.1987 13.3201 14.1387 13.3201C11.0787 13.3201 8.585 10.8263 8.585 7.76631C8.585 4.70631 11.075 2.21256 14.1387 2.21256Z" fill="#80B918"/>
<path d="M14.1388 12.3788C16.6813 12.3788 18.7513 10.3088 18.7513 7.76631C18.7513 5.22381 16.6813 3.15381 14.1388 3.15381C11.5963 3.15381 9.52625 5.22381 9.52625 7.76631C9.52625 10.3088 11.5963 12.3788 14.1388 12.3788ZM14.1388 3.90756C16.2688 3.90756 18.0013 5.64006 18.0013 7.77006C18.0013 9.90006 16.2688 11.6326 14.1388 11.6326C12.0088 11.6326 10.2763 9.90006 10.2763 7.77006C10.2763 5.64006 12.0088 3.90756 14.1388 3.90756Z" fill="#80B918"/>
<path d="M12.7625 8.25L12.2675 9.7725C12.2188 9.92625 12.2713 10.095 12.4025 10.1925C12.47 10.2413 12.545 10.2638 12.6238 10.2638C12.7025 10.2638 12.7775 10.2413 12.845 10.1925L14.1388 9.25125L15.4325 10.1925C15.5638 10.2863 15.7438 10.2863 15.875 10.1925C16.0063 10.0988 16.0625 9.92625 16.01 9.7725L15.515 8.25L16.8088 7.30875C16.94 7.215 16.9962 7.0425 16.9437 6.88875C16.8912 6.735 16.7488 6.63 16.5875 6.63H14.99L14.495 5.1075C14.4463 4.95375 14.3 4.84875 14.1388 4.84875C13.9775 4.84875 13.8312 4.95375 13.7825 5.1075L13.2875 6.63H11.69C11.5288 6.63 11.3825 6.735 11.3338 6.88875C11.285 7.0425 11.3375 7.21125 11.4688 7.30875L12.7625 8.25ZM13.5613 7.38C13.7225 7.38 13.8688 7.275 13.9175 7.12125L14.1388 6.43875L14.36 7.12125C14.4088 7.275 14.555 7.38 14.7163 7.38H15.4325L14.8513 7.8C14.72 7.89375 14.6638 8.06625 14.7163 8.22L14.9375 8.9025L14.3563 8.4825C14.225 8.38875 14.0488 8.38875 13.9138 8.4825L13.3325 8.9025L13.5538 8.22C13.6025 8.06625 13.55 7.8975 13.4188 7.8L12.8375 7.38H13.5613Z" fill="#80B918"/>
</g>
<defs>
<clipPath id="clip0_1_153">
<rect width="24" height="24" fill="white" transform="translate(0.5)"/>
</clipPath>
</defs>
</svg>
