<svg width="24" height="24" viewBox="0 0 24 24" fill="none" xmlns="http://www.w3.org/2000/svg">
<path d="M23.55 14.3475C23.2837 14.0212 22.6462 13.5937 21.3862 14.4112C20.0887 15.2062 18.6337 16.0537 18.03 16.35C17.58 15.3937 16.755 15.2325 16.335 15.3C12.78 15.9187 11.4225 14.85 11.4187 14.85C11.3362 14.775 9.38625 13.0612 7.2075 14.2312C6.03375 14.8612 5.2725 15.0262 4.8825 15.0675V14.49C4.8825 14.2837 4.71375 14.115 4.5075 14.115H2.535C2.32875 14.115 2.16 14.2837 2.16 14.49V14.9025H0.5625C0.35625 14.9025 0.1875 15.0712 0.1875 15.2775C0.1875 15.4837 0.35625 15.6525 0.5625 15.6525H2.16V19.635H0.5625C0.35625 19.635 0.1875 19.8037 0.1875 20.01C0.1875 20.2162 0.35625 20.385 0.5625 20.385H2.16V20.7975C2.16 21.0037 2.32875 21.1725 2.535 21.1725H4.5075C4.71375 21.1725 4.8825 21.0037 4.8825 20.7975V20.7487H5.40375C5.42625 20.7487 7.52625 20.8237 9.5925 21.7087C10.86 22.2525 12.2137 22.5375 13.3125 22.5375C14.0587 22.5375 14.685 22.4062 15.09 22.1362C15.3375 21.9825 21.1537 18.33 23.4337 16.0125C23.8912 15.5475 23.9437 14.8312 23.55 14.3475ZM4.12875 20.4225H2.91V14.865H4.1325V20.4225H4.12875ZM22.8975 15.4875C20.6775 17.7412 14.7487 21.465 14.6812 21.5062C13.9912 21.9637 11.9625 21.9075 9.885 21.0187C7.68375 20.0775 5.51625 20.0025 5.41125 19.9987H4.87875V15.8212C5.3625 15.7837 6.24 15.6 7.56 14.8912C9.27 13.9725 10.8525 15.3487 10.9237 15.4125C10.9875 15.465 12.5137 16.725 16.4587 16.0387C16.485 16.035 17.1225 15.9487 17.4337 16.8675C17.4075 17.0925 17.1937 18.045 15.4912 18.1237H10.5937C10.3875 18.1237 10.2187 18.2925 10.2187 18.4987C10.2187 18.705 10.3875 18.8737 10.5937 18.8737H15.51C17.5237 18.7837 18.0225 17.655 18.1462 17.1112C18.6375 16.92 19.6237 16.3725 21.7875 15.045C22.1962 14.7787 22.7325 14.5275 22.9687 14.82C23.115 15.0037 23.085 15.2962 22.8975 15.4875Z" fill="white"/>
<path d="M13.6388 14.0738C17.115 14.0738 19.9425 11.2463 19.9425 7.77006C19.9425 4.29381 17.115 1.46631 13.6388 1.46631C10.1625 1.46631 7.33502 4.29381 7.33502 7.77006C7.33502 11.2463 10.1625 14.0738 13.6388 14.0738ZM13.6388 2.21256C16.7025 2.21256 19.1925 4.70631 19.1925 7.76631C19.1925 10.8263 16.6988 13.3201 13.6388 13.3201C10.5788 13.3201 8.08502 10.8263 8.08502 7.76631C8.08502 4.70631 10.575 2.21256 13.6388 2.21256Z" fill="white"/>
<path d="M13.6387 12.3788C16.1812 12.3788 18.2512 10.3088 18.2512 7.76631C18.2512 5.22381 16.1812 3.15381 13.6387 3.15381C11.0962 3.15381 9.02625 5.22381 9.02625 7.76631C9.02625 10.3088 11.0962 12.3788 13.6387 12.3788ZM13.6387 3.90756C15.7687 3.90756 17.5012 5.64006 17.5012 7.77006C17.5012 9.90006 15.7687 11.6326 13.6387 11.6326C11.5087 11.6326 9.77625 9.90006 9.77625 7.77006C9.77625 5.64006 11.5087 3.90756 13.6387 3.90756Z" fill="white"/>
<path d="M12.2625 8.25L11.7675 9.7725C11.7187 9.92625 11.7712 10.095 11.9025 10.1925C11.97 10.2413 12.045 10.2638 12.1237 10.2638C12.2025 10.2638 12.2775 10.2413 12.345 10.1925L13.6387 9.25125L14.9325 10.1925C15.0637 10.2863 15.2437 10.2863 15.375 10.1925C15.5062 10.0988 15.5625 9.92625 15.51 9.7725L15.015 8.25L16.3087 7.30875C16.44 7.215 16.4962 7.0425 16.4437 6.88875C16.3912 6.735 16.2487 6.63 16.0875 6.63H14.49L13.995 5.1075C13.9462 4.95375 13.8 4.84875 13.6387 4.84875C13.4775 4.84875 13.3312 4.95375 13.2825 5.1075L12.7875 6.63H11.19C11.0287 6.63 10.8825 6.735 10.8337 6.88875C10.785 7.0425 10.8375 7.21125 10.9687 7.30875L12.2625 8.25ZM13.0612 7.38C13.2225 7.38 13.3687 7.275 13.4175 7.12125L13.6387 6.43875L13.86 7.12125C13.9087 7.275 14.055 7.38 14.2162 7.38H14.9325L14.3512 7.8C14.22 7.89375 14.1637 8.06625 14.2162 8.22L14.4375 8.9025L13.8562 8.4825C13.725 8.38875 13.5487 8.38875 13.4137 8.4825L12.8325 8.9025L13.0537 8.22C13.1025 8.06625 13.05 7.8975 12.9187 7.8L12.3375 7.38H13.0612Z" fill="white"/>
</svg>
