<svg width="105" height="24" viewBox="0 0 105 24" fill="none" xmlns="http://www.w3.org/2000/svg">
<g clip-path="url(#clip0_1_168)">
<path opacity="0.1" fill-rule="evenodd" clip-rule="evenodd" d="M0.5 12C0.5 5.37258 5.87258 0 12.5 0C19.1274 0 24.5 5.37258 24.5 12C24.5 18.6274 19.1274 24 12.5 24C5.87258 24 0.5 18.6274 0.5 12Z" fill="#F2F2F2"/>
<path fill-rule="evenodd" clip-rule="evenodd" d="M12.5006 5.59998C10.7624 5.59998 10.5443 5.60758 9.86161 5.63864C9.18027 5.66984 8.7152 5.77771 8.30827 5.93598C7.88733 6.09945 7.53026 6.31812 7.17452 6.67399C6.81852 7.02972 6.59985 7.38679 6.43585 7.8076C6.27718 8.21467 6.16918 8.67987 6.13851 9.36095C6.10798 10.0436 6.09998 10.2619 6.09998 12C6.09998 13.7382 6.10771 13.9557 6.13864 14.6383C6.16998 15.3197 6.27784 15.7847 6.43598 16.1917C6.59958 16.6126 6.81825 16.9697 7.17412 17.3254C7.52972 17.6814 7.88679 17.9006 8.30747 18.0641C8.71467 18.2224 9.17987 18.3302 9.86108 18.3614C10.5438 18.3925 10.7618 18.4001 12.4998 18.4001C14.2381 18.4001 14.4555 18.3925 15.1382 18.3614C15.8195 18.3302 16.2851 18.2224 16.6924 18.0641C17.1132 17.9006 17.4697 17.6814 17.8253 17.3254C18.1813 16.9697 18.4 16.6126 18.564 16.1918C18.7213 15.7847 18.8293 15.3195 18.8613 14.6385C18.892 13.9558 18.9 13.7382 18.9 12C18.9 10.2619 18.892 10.0438 18.8613 9.36108C18.8293 8.67974 18.7213 8.21467 18.564 7.80773C18.4 7.38679 18.1813 7.02972 17.8253 6.67399C17.4693 6.31798 17.1133 6.09931 16.692 5.93598C16.2839 5.77771 15.8186 5.66984 15.1373 5.63864C14.4546 5.60758 14.2373 5.59998 12.4986 5.59998H12.5006ZM11.9264 6.7533C12.0968 6.75304 12.2869 6.7533 12.5005 6.7533C14.2094 6.7533 14.4119 6.75944 15.0867 6.7901C15.7107 6.81864 16.0494 6.9229 16.275 7.01051C16.5737 7.12651 16.7866 7.26518 17.0105 7.48918C17.2345 7.71318 17.3731 7.92652 17.4894 8.22518C17.577 8.45052 17.6814 8.78919 17.7098 9.4132C17.7405 10.0879 17.7471 10.2905 17.7471 11.9986C17.7471 13.7066 17.7405 13.9092 17.7098 14.5839C17.6813 15.2079 17.577 15.5466 17.4894 15.7719C17.3734 16.0706 17.2345 16.2833 17.0105 16.5071C16.7865 16.7311 16.5738 16.8698 16.275 16.9858C16.0497 17.0738 15.7107 17.1778 15.0867 17.2063C14.412 17.237 14.2094 17.2437 12.5005 17.2437C10.7916 17.2437 10.5891 17.237 9.91439 17.2063C9.29038 17.1775 8.95171 17.0733 8.72598 16.9857C8.42731 16.8697 8.21397 16.731 7.98997 16.507C7.76597 16.283 7.6273 16.0702 7.51103 15.7714C7.42343 15.5461 7.31903 15.2074 7.29063 14.5834C7.25996 13.9087 7.25383 13.706 7.25383 11.997C7.25383 10.2879 7.25996 10.0863 7.29063 9.4116C7.31916 8.78759 7.42343 8.44892 7.51103 8.22332C7.62703 7.92465 7.76597 7.71131 7.98997 7.48731C8.21397 7.26331 8.42731 7.12464 8.72598 7.00837C8.95158 6.92037 9.29038 6.81637 9.91439 6.7877C10.5048 6.76104 10.7336 6.75304 11.9264 6.7517V6.7533ZM15.9169 7.81598C15.4928 7.81598 15.1488 8.15959 15.1488 8.58372C15.1488 9.00773 15.4928 9.35173 15.9169 9.35173C16.3409 9.35173 16.6849 9.00773 16.6849 8.58372C16.6849 8.15972 16.3409 7.81598 15.9169 7.81598ZM12.5006 8.71332C10.6855 8.71332 9.21389 10.1849 9.21389 12C9.21389 13.8151 10.6855 15.2861 12.5006 15.2861C14.3157 15.2861 15.7868 13.8151 15.7868 12C15.7868 10.1849 14.3157 8.71332 12.5006 8.71332ZM12.5006 9.86667C13.6787 9.86667 14.6339 10.8217 14.6339 12C14.6339 13.1782 13.6787 14.1334 12.5006 14.1334C11.3223 14.1334 10.3672 13.1782 10.3672 12C10.3672 10.8217 11.3223 9.86667 12.5006 9.86667Z" fill="#F2F2F2"/>
<path opacity="0.1" fill-rule="evenodd" clip-rule="evenodd" d="M40.5 12C40.5 5.37258 45.8726 0 52.5 0C59.1274 0 64.5 5.37258 64.5 12C64.5 18.6274 59.1274 24 52.5 24C45.8726 24 40.5 18.6274 40.5 12Z" fill="#F2F2F2"/>
<path fill-rule="evenodd" clip-rule="evenodd" d="M52.1406 9.7537L52.1658 10.1689L51.7461 10.1181C50.2184 9.92318 48.8838 9.26221 47.7507 8.15211L47.1967 7.6013L47.054 8.00805C46.7518 8.91477 46.9449 9.87234 47.5744 10.5164C47.9102 10.8723 47.8346 10.9231 47.2554 10.7113C47.054 10.6435 46.8777 10.5926 46.8609 10.6181C46.8022 10.6774 47.0036 11.4485 47.1631 11.7536C47.3813 12.1773 47.8262 12.5925 48.3131 12.8382L48.7243 13.0331L48.2375 13.0416C47.7675 13.0416 47.7507 13.0501 47.801 13.2281C47.9689 13.7789 48.632 14.3636 49.3707 14.6178L49.8911 14.7957L49.4378 15.0669C48.7663 15.4567 47.9773 15.677 47.1883 15.694C46.8106 15.7025 46.5 15.7364 46.5 15.7618C46.5 15.8465 47.524 16.3211 48.12 16.5075C49.9079 17.0583 52.0315 16.821 53.6263 15.8804C54.7595 15.211 55.8926 13.8806 56.4214 12.5925C56.7068 11.9061 56.9922 10.6519 56.9922 10.0503C56.9922 9.66049 57.0174 9.60964 57.4874 9.14357C57.7644 8.8724 58.0246 8.57581 58.075 8.49107C58.1589 8.33007 58.1505 8.33007 57.7224 8.47412C57.009 8.72834 56.9083 8.69445 57.2608 8.31312C57.521 8.04195 57.8316 7.55046 57.8316 7.4064C57.8316 7.38098 57.7057 7.42335 57.563 7.49961C57.4119 7.58435 57.0761 7.71146 56.8243 7.78773L56.3711 7.93179L55.9598 7.65214C55.7331 7.49961 55.4142 7.33013 55.2463 7.27929C54.8182 7.16065 54.1635 7.1776 53.7774 7.31318C52.7282 7.69451 52.0651 8.6775 52.1406 9.7537Z" fill="#F2F2F2"/>
<path opacity="0.1" fill-rule="evenodd" clip-rule="evenodd" d="M80.5 12C80.5 5.37258 85.8726 0 92.5 0C99.1274 0 104.5 5.37258 104.5 12C104.5 18.6274 99.1274 24 92.5 24C85.8726 24 80.5 18.6274 80.5 12Z" fill="#F2F2F2"/>
<path fill-rule="evenodd" clip-rule="evenodd" d="M97.5008 7.87464C98.0515 8.02577 98.4853 8.47108 98.6325 9.03659C98.9 10.0615 98.9 12.2 98.9 12.2C98.9 12.2 98.9 14.3384 98.6325 15.3634C98.4853 15.9289 98.0515 16.3742 97.5008 16.5254C96.5027 16.8 92.5 16.8 92.5 16.8C92.5 16.8 88.4973 16.8 87.4991 16.5254C86.9483 16.3742 86.5146 15.9289 86.3674 15.3634C86.1 14.3384 86.1 12.2 86.1 12.2C86.1 12.2 86.1 10.0615 86.3674 9.03659C86.5146 8.47108 86.9483 8.02577 87.4991 7.87464C88.4973 7.59998 92.5 7.59998 92.5 7.59998C92.5 7.59998 96.5027 7.59998 97.5008 7.87464ZM91.3 10.3999V14.3999L94.5 12.4L91.3 10.3999Z" fill="#F2F2F2"/>
</g>
<defs>
<clipPath id="clip0_1_168">
<rect width="104" height="24" fill="white" transform="translate(0.5)"/>
</clipPath>
</defs>
</svg>
