<svg viewBox="0 0 693.7 407" xmlns="http://www.w3.org/2000/svg" xmlns:xlink="http://www.w3.org/1999/xlink"><clipPath id="a"><path d="m0 0h693.7v407h-693.7z"/></clipPath><g fill="#56bd82"><path d="m557.6 0-72 15.3v290.7h72z"/><g clip-path="url(#a)"><path d="m352.6 86.9a111.1 111.1 0 1 0 111.1 111.1 111.11 111.11 0 0 0 -111.1-111.1m0 147.1a36 36 0 1 1 36-36 36 36 0 0 1 -36 36"/><path d="m352.6 335a36 36 0 1 1 -36 36 36 36 0 0 1 36-36"/><path d="m192.4 144.2a94.53 94.53 0 0 0 -80.4-144.2h-112v306h126a94.54 94.54 0 0 0 66.4-161.8m-120.3-72.2h40a22.5 22.5 0 0 1 0 45h-40zm54 162h-54v-45h54a22.5 22.5 0 1 1 0 45"/><path d="m693.6 163v-72h-36v-55l-72 15.3v186.3c0 43.9 27.3 69.2 67.5 71.3.4 0 .9.1 1.3.1h.7c.9 0 1.7.1 2.6.1h.9a74.23 74.23 0 0 0 35.1-9v-53a60.12 60.12 0 0 1 -16.1 2.1c-14.4 0-19.9-12.6-19.9-29.7v-56.5z"/></g></g></svg>