<svg width="24" height="24" viewBox="0 0 24 24" fill="none" xmlns="http://www.w3.org/2000/svg">
<path d="M1.125 22.875L7.78463 9.55572C7.83781 9.44963 7.91542 9.35768 8.01106 9.28741C8.1067 9.21715 8.21765 9.17059 8.33479 9.15156C8.45193 9.13252 8.57192 9.14156 8.68489 9.17792C8.79786 9.21428 8.90058 9.27693 8.98462 9.36072L14.2875 14.6625C14.3701 14.7451 14.4323 14.8458 14.4691 14.9567C14.5059 15.0676 14.5163 15.1856 14.4994 15.3012C14.4826 15.4168 14.4389 15.5269 14.372 15.6226C14.305 15.7184 14.2167 15.7972 14.1139 15.8527L1.125 22.875Z" fill="#F9E0A0"/>
<path d="M13.3901 13.7651C10.4479 16.212 6.62775 16.926 4.0365 17.0524L1.125 22.875L14.1146 15.8535C14.2175 15.7979 14.3059 15.719 14.3729 15.6232C14.4398 15.5273 14.4835 15.4172 14.5003 15.3014C14.5171 15.1857 14.5066 15.0677 14.4696 14.9568C14.4327 14.8458 14.3703 14.7451 14.2875 14.6625L13.3901 13.7651Z" fill="#F4CA62"/>
<path d="M5.25 20.6452V14.625L3.75 17.625V21.456L5.25 20.6452ZM7.78463 9.55574L7.5 10.125L7.50863 19.425L10.1119 18.018L10.125 18V10.5L8.98575 9.36074C8.90171 9.27672 8.79891 9.21386 8.68582 9.17736C8.57273 9.14087 8.45258 9.13176 8.33528 9.15081C8.21798 9.16985 8.10688 9.21649 8.01114 9.2869C7.9154 9.3573 7.83777 9.44945 7.78463 9.55574Z" fill="#32B39B"/>
<path d="M15.453 13.8L15.033 13.1786L16.9545 11.8804C17.1215 11.7573 17.3163 11.6774 17.5216 11.6476C17.7269 11.6178 17.9364 11.639 18.1315 11.7095C18.3266 11.7799 18.5013 11.8974 18.6402 12.0515C18.7791 12.2056 18.8779 12.3915 18.9278 12.5929C18.9649 12.7373 19.0579 12.8611 19.1863 12.937C19.3148 13.0129 19.468 13.0346 19.6125 12.9975L21.9716 12.3833L22.1591 13.1093L19.8026 13.725C19.466 13.8128 19.1083 13.7633 18.8082 13.5876C18.508 13.4118 18.2899 13.124 18.2018 12.7875C18.1825 12.702 18.1416 12.6228 18.083 12.5576C18.0244 12.4923 17.9501 12.4432 17.8671 12.415C17.7841 12.3867 17.6952 12.3801 17.609 12.396C17.5227 12.4118 17.442 12.4495 17.3745 12.5055L15.453 13.8ZM17.625 6.06263C17.3159 6.06263 17.0138 5.97098 16.7569 5.79928C16.4999 5.62758 16.2996 5.38353 16.1813 5.09799C16.0631 4.81246 16.0321 4.49827 16.0924 4.19515C16.1527 3.89203 16.3015 3.6136 16.5201 3.39506C16.7386 3.17652 17.017 3.0277 17.3202 2.9674C17.6233 2.90711 17.9375 2.93806 18.223 3.05633C18.5085 3.1746 18.7526 3.37488 18.9243 3.63186C19.096 3.88883 19.1876 4.19095 19.1876 4.5C19.187 4.91425 19.0222 5.31137 18.7293 5.60429C18.4364 5.89721 18.0393 6.06203 17.625 6.06263ZM17.625 3.68738C17.4643 3.68738 17.3072 3.73504 17.1735 3.82433C17.0399 3.91362 16.9357 4.04054 16.8742 4.18903C16.8127 4.33751 16.7966 4.50091 16.828 4.65854C16.8593 4.81617 16.9367 4.96097 17.0504 5.07462C17.164 5.18826 17.3088 5.26566 17.4665 5.29701C17.6241 5.32837 17.7875 5.31228 17.936 5.25077C18.0845 5.18927 18.2114 5.08511 18.3007 4.95147C18.39 4.81784 18.4376 4.66073 18.4376 4.5C18.4374 4.28454 18.3518 4.07796 18.1994 3.92561C18.047 3.77326 17.8405 3.68758 17.625 3.68738V3.68738Z" fill="#F4CA62"/>
<path d="M15.5565 9.17029L14.9726 8.70004L17.0775 6.09116C17.3502 5.74255 17.701 5.4629 18.1016 5.27479C18.3786 5.14852 18.6714 5.06022 18.972 5.01229C18.9862 5.01005 19.0004 5.00854 19.0148 5.00779L22.6095 4.85779L22.6403 5.60779L19.068 5.75554C18.8415 5.79305 18.621 5.86025 18.4121 5.95541C18.1183 6.09545 17.8614 6.3025 17.6621 6.55991L15.5565 9.17029Z" fill="#F4CA62"/>
<path d="M5.86725 3.90857L5.45775 6.39407L7.13062 6.59132L5.86725 3.90857V3.90857ZM20.8084 16.1789L18.7496 17.6309L17.8429 16.2112L20.8084 16.1789ZM14.1881 7.13957L11.7799 7.87944L12.348 9.46532L14.1881 7.13957V7.13957Z" fill="#F86688"/>
<path d="M10.5 8.24998H9.75V5.81248C9.75 5.46438 9.88828 5.13054 10.1344 4.8844C10.3806 4.63826 10.7144 4.49998 11.0625 4.49998C11.1823 4.50033 11.299 4.46221 11.3955 4.39123C11.4817 4.31595 11.5422 4.21569 11.5688 4.10439C11.5953 3.9931 11.5865 3.8763 11.5436 3.77023L10.7715 1.58398L11.4788 1.33423L12.2509 3.52048C12.328 3.71321 12.3563 3.92199 12.3334 4.12831C12.3105 4.33462 12.237 4.53208 12.1194 4.70317C12.0018 4.87426 11.8439 5.01368 11.6595 5.10907C11.4751 5.20446 11.2701 5.25286 11.0625 5.24998C10.9133 5.24998 10.7702 5.30924 10.6648 5.41473C10.5593 5.52022 10.5 5.66329 10.5 5.81248V8.24998Z" fill="#F4CA62"/>
<path d="M4.0365 17.0524L3.75 17.625V21.456L5.25 20.6452V16.9541C4.84659 16.9991 4.4419 17.0319 4.0365 17.0524V17.0524ZM7.506 16.5664L7.50863 19.4239L10.1119 18.0169L10.125 18V15.7249C9.27718 16.0784 8.40108 16.3599 7.506 16.5664V16.5664Z" fill="#289F87"/>
</svg>
