<svg width="122" height="156" viewBox="0 0 122 156" fill="none" xmlns="http://www.w3.org/2000/svg">
<path d="M114.688 148.688L28.1124 105.4C27.4228 105.054 26.8251 104.55 26.3684 103.928C25.9117 103.306 25.609 102.585 25.4853 101.824C25.3616 101.062 25.4203 100.283 25.6566 99.5482C25.893 98.8139 26.3002 98.1462 26.8449 97.5999L61.3063 63.1313C61.8431 62.5941 62.4981 62.1899 63.2189 61.9507C63.9397 61.7115 64.7063 61.6441 65.4578 61.7537C66.2093 61.8633 66.9248 62.147 67.5472 62.5821C68.1696 63.0172 68.6818 63.5917 69.0429 64.2598L114.688 148.688Z" fill="#F9E0A0"/>
<path d="M55.4733 68.9642C71.378 88.0888 76.019 112.92 76.8404 129.763L114.688 148.688L69.0478 64.2549C68.6864 63.5863 68.1737 63.0115 67.5507 62.5762C66.9276 62.141 66.2114 61.8575 65.4593 61.7483C64.7072 61.6392 63.9399 61.7074 63.2188 61.9475C62.4978 62.1876 61.8428 62.593 61.3063 63.1313L55.4733 68.9642Z" fill="#F4CA62"/>
<path d="M100.194 121.875H61.0625L80.5625 131.625H105.464L100.194 121.875ZM28.1124 105.4L31.8125 107.25L92.2625 107.194L83.117 90.2728L83 90.1875H34.25L26.8449 97.5926C26.2987 98.1389 25.8902 98.8071 25.6529 99.5422C25.4157 100.277 25.3565 101.058 25.4803 101.821C25.6041 102.583 25.9073 103.305 26.3649 103.928C26.8225 104.55 27.4215 105.055 28.1124 105.4Z" fill="#32B39B"/>
<path d="M55.7 55.5555L51.6611 58.2855L43.2225 45.7958C42.4227 44.7101 41.903 43.4441 41.7092 42.1097C41.5155 40.7753 41.6537 39.4137 42.1116 38.1455C42.5696 36.8772 43.3331 35.7415 44.3347 34.8387C45.3362 33.9359 46.5449 33.2939 47.8537 32.9697C48.7926 32.7281 49.5971 32.1234 50.0903 31.2888C50.5835 30.4541 50.7251 29.4578 50.4838 28.5188L46.4911 13.1845L51.2101 11.9657L55.2125 27.283C55.7831 29.4709 55.4618 31.7958 54.3191 33.7469C53.1765 35.6981 51.3061 37.1158 49.1188 37.6887C48.5628 37.8139 48.0482 38.0797 47.6242 38.4605C47.2003 38.8414 46.8811 39.3247 46.6972 39.8641C46.5133 40.4036 46.4708 40.9812 46.5739 41.5417C46.6769 42.1023 46.922 42.627 47.2858 43.0658L55.7 55.5555ZM5.40708 41.4375C5.40708 43.4464 4.81138 45.4102 3.69531 47.0805C2.57924 48.7508 0.992921 50.0527 -0.863039 50.8214C-2.719 51.5902 -4.76125 51.7913 -6.73152 51.3994C-8.7018 51.0075 -10.5116 50.0401 -11.9321 48.6197C-13.3526 47.1992 -14.32 45.3894 -14.7119 43.4191C-15.1038 41.4488 -14.9026 39.4065 -14.1339 37.5506C-13.3651 35.6946 -12.0633 34.1083 -10.3929 32.9922C-8.72262 31.8762 -6.75885 31.2805 -4.74998 31.2805C-2.05735 31.2843 0.523897 32.3557 2.42788 34.2597C4.33186 36.1637 5.40321 38.7449 5.40708 41.4375ZM-10.032 41.4375C-10.032 42.4822 -9.72225 43.5035 -9.14185 44.3721C-8.56145 45.2407 -7.73651 45.9177 -6.77134 46.3175C-5.80617 46.7173 -4.74412 46.8219 -3.7195 46.6181C-2.69488 46.4143 -1.75371 45.9112 -1.015 45.1725C-0.276287 44.4338 0.226781 43.4926 0.43059 42.468C0.6344 41.4434 0.529797 40.3813 0.13001 39.4162C-0.269776 38.451 -0.946791 37.626 -1.81542 37.0456C-2.68405 36.4652 -3.70528 36.1555 -4.74998 36.1555C-6.15047 36.1568 -7.49323 36.7137 -8.48353 37.704C-9.47383 38.6943 -10.0307 40.037 -10.032 41.4375V41.4375Z" fill="#F4CA62"/>
<path d="M25.6066 54.8828L22.55 58.678L5.59231 44.9963C3.32631 43.2238 1.50863 40.9436 0.285877 38.3395C-0.534884 36.539 -1.10882 34.636 -1.42037 32.682C-1.43495 32.59 -1.44471 32.4972 -1.44962 32.4042L-2.42462 9.03829L2.45038 8.83841L3.41075 32.058C3.65457 33.53 4.0914 34.9634 4.70994 36.3212C5.6202 38.2313 6.96604 39.9011 8.63919 41.1962L25.6066 54.8828Z" fill="#F4CA62"/>
<path d="M-8.59393 117.863L7.56182 120.525L8.84394 109.651L-8.59393 117.863V117.863ZM71.1635 20.7456L80.6015 34.1275L71.3731 40.0213L71.1635 20.7456ZM12.4076 63.7772L17.2168 79.4308L27.5249 75.738L12.4076 63.7772V63.7772Z" fill="#F86688"/>
<path d="M19.625 87.75V92.625H3.78123C1.5186 92.625 -0.651351 91.7262 -2.25127 90.1263C-3.85119 88.5263 -4.75002 86.3564 -4.75002 84.0938C-4.74771 83.3152 -4.99549 82.5564 -5.45689 81.9292C-5.94622 81.3692 -6.5979 80.9755 -7.32132 80.803C-8.04474 80.6304 -8.80395 80.6875 -9.49339 80.9664L-23.704 85.9852L-25.3274 81.3881L-11.1168 76.3693C-9.86403 75.8681 -8.50693 75.6838 -7.16589 75.8329C-5.82485 75.9819 -4.54134 76.4597 -3.42927 77.2239C-2.31719 77.988 -1.41094 79.0148 -0.790918 80.2132C-0.1709 81.4117 0.143705 82.7446 0.124981 84.0938C0.124981 85.0634 0.510194 85.9934 1.19587 86.6791C1.88155 87.3648 2.81153 87.75 3.78123 87.75H19.625Z" fill="#F4CA62"/>
<path d="M76.8404 129.763L80.5625 131.625H105.464L100.194 121.875H76.2018C76.4946 124.497 76.7075 127.128 76.8404 129.763V129.763ZM73.6814 107.211L92.2552 107.194L83.1097 90.2728L83 90.1875H68.2117C70.5097 95.6983 72.3394 101.393 73.6814 107.211V107.211Z" fill="#289F87"/>
</svg>
