<svg width="19" height="19" viewBox="0 0 19 19" fill="none" xmlns="http://www.w3.org/2000/svg">
<path d="M17 10.125V14C16.9992 14.7954 16.6829 15.558 16.1204 16.1204C15.558 16.6829 14.7954 16.9992 14 17H5C4.20459 16.9992 3.44199 16.6829 2.87956 16.1204C2.31712 15.558 2.00079 14.7954 2 14V5C2.00079 4.20459 2.31712 3.44199 2.87956 2.87956C3.44199 2.31712 4.20459 2.00079 5 2H8.969C9.23422 2 9.48857 1.89464 9.67611 1.70711C9.86364 1.51957 9.969 1.26522 9.969 1C9.969 0.734784 9.86364 0.48043 9.67611 0.292893C9.48857 0.105357 9.23422 0 8.969 0H5C3.67441 0.00158786 2.40356 0.528882 1.46622 1.46622C0.528882 2.40356 0.00158786 3.67441 0 5V14C0.00158786 15.3256 0.528882 16.5964 1.46622 17.5338C2.40356 18.4711 3.67441 18.9984 5 19H14C15.3256 18.9984 16.5964 18.4711 17.5338 17.5338C18.4711 16.5964 18.9984 15.3256 19 14V10.125C19 9.85978 18.8946 9.60543 18.7071 9.41789C18.5196 9.23036 18.2652 9.125 18 9.125C17.7348 9.125 17.4804 9.23036 17.2929 9.41789C17.1054 9.60543 17 9.85978 17 10.125Z" fill="#55A630"/>
</svg>
