<svg width="24" height="22" viewBox="0 0 24 22" fill="none" xmlns="http://www.w3.org/2000/svg">
<path d="M17.4178 16.0906C17.6724 16.3815 17.8178 16.7451 17.8178 17.1451C17.8178 17.7997 17.3815 18.3815 16.7996 18.5997C16.9815 18.8542 17.0906 19.1815 17.0906 19.5088C17.0906 20.3815 16.3996 21.0724 15.5269 21.0724H9.38146C9.38146 21.0724 9.3451 21.0724 9.30874 21.0724C6.18146 20.5997 6.03601 20.5633 5.70874 20.5997V12.6724C5.70874 12.5269 5.67237 12.3815 5.63601 12.236C6.87237 10.9269 6.98146 9.7633 8.87237 9.18148C9.56328 8.9633 10.1451 8.52693 10.5451 7.94512L12.2906 5.47239C12.3996 5.32693 12.5815 5.29057 12.7269 5.3633C14.2542 6.05421 14.7996 7.94512 13.8542 9.3633L12.9087 10.8178H15.9269C16.7633 10.8178 17.4906 11.4724 17.5269 12.2724C17.5633 12.6724 17.4178 13.036 17.1996 13.3269C17.8178 13.5451 18.1815 14.0906 18.1815 14.7451C18.1815 15.3269 17.8542 15.7997 17.4178 16.0906ZM23.3087 4.52694L21.6724 5.72693L22.2906 7.69057C22.3996 8.01784 22.2906 8.34512 21.9996 8.52694C21.7451 8.70875 21.3815 8.70875 21.1269 8.52694L19.4906 7.32693L17.8178 8.52694C17.5633 8.70875 17.1996 8.74512 16.9451 8.52694C16.6906 8.34512 16.5815 8.01784 16.6542 7.69057L17.2724 5.7633L15.636 4.52694C15.3815 4.34512 15.2724 4.01784 15.3451 3.69057C15.4542 3.3633 15.7087 3.18148 16.0724 3.18148H18.1087L18.7633 1.25421C18.8724 0.926935 19.1633 0.745117 19.4906 0.745117C19.8178 0.745117 20.1087 0.963299 20.2178 1.25421L20.836 3.18148H22.8724C23.1996 3.18148 23.4906 3.39966 23.5996 3.69057C23.7087 4.01784 23.5996 4.34512 23.3087 4.52694ZM4.98146 12.6724V20.9269C4.98146 21.1088 4.79964 21.2906 4.61783 21.2906H0.726918C0.508736 21.2906 0.363281 21.1088 0.363281 20.9269V12.6724C0.363281 12.4542 0.508736 12.3088 0.726918 12.3088H4.65419C4.83601 12.3088 4.98146 12.4542 4.98146 12.6724Z" fill="white"/>
</svg>
