<svg width="39" height="39" viewBox="0 0 39 39" fill="none" xmlns="http://www.w3.org/2000/svg">
<circle cx="19.5" cy="19.5" r="18.75" fill="#80B918" stroke="#55A630" stroke-width="1.5"/>
<path d="M30.55 21.3475C30.2837 21.0212 29.6462 20.5937 28.3862 21.4112C27.0887 22.2062 25.6337 23.0537 25.03 23.35C24.58 22.3937 23.755 22.2325 23.335 22.3C19.78 22.9187 18.4225 21.85 18.4187 21.85C18.3362 21.775 16.3862 20.0612 14.2075 21.2312C13.0337 21.8612 12.2725 22.0262 11.8825 22.0675V21.49C11.8825 21.2837 11.7137 21.115 11.5075 21.115H9.535C9.32875 21.115 9.16 21.2837 9.16 21.49V21.9025H7.5625C7.35625 21.9025 7.1875 22.0712 7.1875 22.2775C7.1875 22.4837 7.35625 22.6525 7.5625 22.6525H9.16V26.635H7.5625C7.35625 26.635 7.1875 26.8037 7.1875 27.01C7.1875 27.2162 7.35625 27.385 7.5625 27.385H9.16V27.7975C9.16 28.0037 9.32875 28.1725 9.535 28.1725H11.5075C11.7137 28.1725 11.8825 28.0037 11.8825 27.7975V27.7487H12.4037C12.4262 27.7487 14.5262 27.8237 16.5925 28.7087C17.86 29.2525 19.2137 29.5375 20.3125 29.5375C21.0587 29.5375 21.685 29.4062 22.09 29.1362C22.3375 28.9825 28.1537 25.33 30.4337 23.0125C30.8912 22.5475 30.9437 21.8312 30.55 21.3475ZM11.1287 27.4225H9.91V21.865H11.1325V27.4225H11.1287ZM29.8975 22.4875C27.6775 24.7412 21.7487 28.465 21.6812 28.5062C20.9912 28.9637 18.9625 28.9075 16.885 28.0187C14.6837 27.0775 12.5162 27.0025 12.4112 26.9987H11.8787V22.8212C12.3625 22.7837 13.24 22.6 14.56 21.8912C16.27 20.9725 17.8525 22.3487 17.9237 22.4125C17.9875 22.465 19.5137 23.725 23.4587 23.0387C23.485 23.035 24.1225 22.9487 24.4338 23.8675C24.4075 24.0925 24.1937 25.045 22.4912 25.1237H17.5937C17.3875 25.1237 17.2187 25.2925 17.2187 25.4987C17.2187 25.705 17.3875 25.8737 17.5937 25.8737H22.51C24.5237 25.7837 25.0225 24.655 25.1462 24.1112C25.6375 23.92 26.6237 23.3725 28.7875 22.045C29.1962 21.7787 29.7325 21.5275 29.9687 21.82C30.115 22.0037 30.085 22.2962 29.8975 22.4875Z" fill="white"/>
<path d="M20.6388 21.0737C24.115 21.0737 26.9425 18.2462 26.9425 14.77C26.9425 11.2937 24.115 8.46625 20.6388 8.46625C17.1625 8.46625 14.335 11.2937 14.335 14.77C14.335 18.2462 17.1625 21.0737 20.6388 21.0737ZM20.6388 9.2125C23.7025 9.2125 26.1925 11.7062 26.1925 14.7662C26.1925 17.8262 23.6988 20.32 20.6388 20.32C17.5788 20.32 15.085 17.8262 15.085 14.7662C15.085 11.7062 17.575 9.2125 20.6388 9.2125Z" fill="white"/>
<path d="M20.6387 19.3787C23.1812 19.3787 25.2512 17.3087 25.2512 14.7662C25.2512 12.2237 23.1812 10.1537 20.6387 10.1537C18.0962 10.1537 16.0262 12.2237 16.0262 14.7662C16.0262 17.3087 18.0962 19.3787 20.6387 19.3787ZM20.6387 10.9075C22.7687 10.9075 24.5012 12.64 24.5012 14.77C24.5012 16.9 22.7687 18.6325 20.6387 18.6325C18.5087 18.6325 16.7762 16.9 16.7762 14.77C16.7762 12.64 18.5087 10.9075 20.6387 10.9075Z" fill="white"/>
<path d="M19.2625 15.25L18.7675 16.7725C18.7187 16.9263 18.7712 17.095 18.9025 17.1925C18.97 17.2413 19.045 17.2638 19.1237 17.2638C19.2025 17.2638 19.2775 17.2413 19.345 17.1925L20.6387 16.2513L21.9325 17.1925C22.0637 17.2863 22.2437 17.2863 22.375 17.1925C22.5062 17.0988 22.5625 16.9263 22.51 16.7725L22.015 15.25L23.3087 14.3088C23.44 14.215 23.4962 14.0425 23.4437 13.8888C23.3912 13.735 23.2487 13.63 23.0875 13.63H21.49L20.995 12.1075C20.9462 11.9538 20.8 11.8488 20.6387 11.8488C20.4775 11.8488 20.3312 11.9538 20.2825 12.1075L19.7875 13.63H18.19C18.0287 13.63 17.8825 13.735 17.8337 13.8888C17.785 14.0425 17.8375 14.2113 17.9687 14.3088L19.2625 15.25ZM20.0612 14.38C20.2225 14.38 20.3687 14.275 20.4175 14.1213L20.6387 13.4388L20.86 14.1213C20.9087 14.275 21.055 14.38 21.2162 14.38H21.9325L21.3512 14.8C21.22 14.8938 21.1637 15.0663 21.2162 15.22L21.4375 15.9025L20.8562 15.4825C20.725 15.3888 20.5487 15.3888 20.4137 15.4825L19.8325 15.9025L20.0537 15.22C20.1025 15.0663 20.05 14.8975 19.9187 14.8L19.3375 14.38H20.0612Z" fill="white"/>
</svg>
