<svg width="40" height="39" viewBox="0 0 40 39" fill="none" xmlns="http://www.w3.org/2000/svg">
<g clip-path="url(#clip0_16_106)">
<circle cx="20" cy="19.5" r="18.75" fill="white" stroke="white" stroke-width="1.5"/>
<g clip-path="url(#clip1_16_106)">
<path d="M31.05 21.3475C30.7837 21.0212 30.1462 20.5937 28.8862 21.4112C27.5887 22.2062 26.1337 23.0537 25.53 23.35C25.08 22.3937 24.255 22.2325 23.835 22.3C20.28 22.9187 18.9225 21.85 18.9187 21.85C18.8362 21.775 16.8862 20.0612 14.7075 21.2312C13.5337 21.8612 12.7725 22.0262 12.3825 22.0675V21.49C12.3825 21.2837 12.2137 21.115 12.0075 21.115H10.035C9.82875 21.115 9.66 21.2837 9.66 21.49V21.9025H8.0625C7.85625 21.9025 7.6875 22.0712 7.6875 22.2775C7.6875 22.4837 7.85625 22.6525 8.0625 22.6525H9.66V26.635H8.0625C7.85625 26.635 7.6875 26.8037 7.6875 27.01C7.6875 27.2162 7.85625 27.385 8.0625 27.385H9.66V27.7975C9.66 28.0037 9.82875 28.1725 10.035 28.1725H12.0075C12.2137 28.1725 12.3825 28.0037 12.3825 27.7975V27.7487H12.9037C12.9262 27.7487 15.0262 27.8237 17.0925 28.7087C18.36 29.2525 19.7137 29.5375 20.8125 29.5375C21.5587 29.5375 22.185 29.4062 22.59 29.1362C22.8375 28.9825 28.6537 25.33 30.9337 23.0125C31.3912 22.5475 31.4437 21.8312 31.05 21.3475ZM11.6287 27.4225H10.41V21.865H11.6325V27.4225H11.6287ZM30.3975 22.4875C28.1775 24.7412 22.2487 28.465 22.1812 28.5062C21.4912 28.9637 19.4625 28.9075 17.385 28.0187C15.1837 27.0775 13.0162 27.0025 12.9112 26.9987H12.3787V22.8212C12.8625 22.7837 13.74 22.6 15.06 21.8912C16.77 20.9725 18.3525 22.3487 18.4237 22.4125C18.4875 22.465 20.0137 23.725 23.9587 23.0387C23.985 23.035 24.6225 22.9487 24.9338 23.8675C24.9075 24.0925 24.6937 25.045 22.9912 25.1237H18.0937C17.8875 25.1237 17.7187 25.2925 17.7187 25.4987C17.7187 25.705 17.8875 25.8737 18.0937 25.8737H23.01C25.0237 25.7837 25.5225 24.655 25.6462 24.1112C26.1375 23.92 27.1237 23.3725 29.2875 22.045C29.6962 21.7787 30.2325 21.5275 30.4687 21.82C30.615 22.0037 30.585 22.2962 30.3975 22.4875Z" fill="#80B918"/>
<path d="M21.1387 21.0738C24.615 21.0738 27.4425 18.2463 27.4425 14.7701C27.4425 11.2938 24.615 8.46631 21.1387 8.46631C17.6625 8.46631 14.835 11.2938 14.835 14.7701C14.835 18.2463 17.6625 21.0738 21.1387 21.0738ZM21.1387 9.21256C24.2025 9.21256 26.6925 11.7063 26.6925 14.7663C26.6925 17.8263 24.1987 20.3201 21.1387 20.3201C18.0787 20.3201 15.585 17.8263 15.585 14.7663C15.585 11.7063 18.075 9.21256 21.1387 9.21256Z" fill="#80B918"/>
<path d="M21.1388 19.3788C23.6813 19.3788 25.7513 17.3088 25.7513 14.7663C25.7513 12.2238 23.6813 10.1538 21.1388 10.1538C18.5963 10.1538 16.5263 12.2238 16.5263 14.7663C16.5263 17.3088 18.5963 19.3788 21.1388 19.3788ZM21.1388 10.9076C23.2688 10.9076 25.0013 12.6401 25.0013 14.7701C25.0013 16.9001 23.2688 18.6326 21.1388 18.6326C19.0088 18.6326 17.2763 16.9001 17.2763 14.7701C17.2763 12.6401 19.0088 10.9076 21.1388 10.9076Z" fill="#80B918"/>
<path d="M19.7625 15.2499L19.2675 16.7724C19.2188 16.9261 19.2713 17.0949 19.4025 17.1924C19.47 17.2411 19.545 17.2636 19.6238 17.2636C19.7025 17.2636 19.7775 17.2411 19.845 17.1924L21.1388 16.2511L22.4325 17.1924C22.5638 17.2861 22.7438 17.2861 22.875 17.1924C23.0063 17.0986 23.0625 16.9261 23.01 16.7724L22.515 15.2499L23.8088 14.3086C23.94 14.2149 23.9962 14.0424 23.9437 13.8886C23.8913 13.7349 23.7488 13.6299 23.5875 13.6299H21.99L21.495 12.1074C21.4463 11.9536 21.3 11.8486 21.1388 11.8486C20.9775 11.8486 20.8312 11.9536 20.7825 12.1074L20.2875 13.6299H18.69C18.5288 13.6299 18.3825 13.7349 18.3338 13.8886C18.285 14.0424 18.3375 14.2111 18.4688 14.3086L19.7625 15.2499ZM20.5613 14.3799C20.7225 14.3799 20.8688 14.2749 20.9175 14.1211L21.1388 13.4386L21.36 14.1211C21.4088 14.2749 21.555 14.3799 21.7163 14.3799H22.4325L21.8513 14.7999C21.72 14.8936 21.6638 15.0661 21.7163 15.2199L21.9375 15.9024L21.3563 15.4824C21.225 15.3886 21.0488 15.3886 20.9138 15.4824L20.3325 15.9024L20.5538 15.2199C20.6025 15.0661 20.55 14.8974 20.4188 14.7999L19.8375 14.3799H20.5613Z" fill="#80B918"/>
</g>
</g>
<defs>
<clipPath id="clip0_16_106">
<rect width="39" height="39" fill="white" transform="translate(0.5)"/>
</clipPath>
<clipPath id="clip1_16_106">
<rect width="24" height="24" fill="white" transform="translate(7.5 7)"/>
</clipPath>
</defs>
</svg>
