<svg width="85" height="84" viewBox="0 0 85 84" fill="none" xmlns="http://www.w3.org/2000/svg">
<path d="M42.5 82.7275C64.993 82.7275 83.2272 64.4933 83.2272 42.0002C83.2272 19.5072 64.993 1.27295 42.5 1.27295C20.0069 1.27295 1.77271 19.5072 1.77271 42.0002C1.77271 64.4933 20.0069 82.7275 42.5 82.7275Z" fill="#55A630"/>
<path d="M29.5436 45.2199C29.5436 45.2199 33.1963 43.6672 35.2072 35.3435C35.2072 35.3435 36.3909 28.8526 42.4236 24.5508C42.4236 24.5508 46.9927 20.809 47.1708 14.9545C47.1708 14.9545 47.2981 12.969 49.2454 13.0581C50.0599 13.0963 50.7981 13.529 51.3199 14.1526C52.6054 15.6926 54.5145 19.4217 51.1799 26.0145C51.1799 26.0145 47.2472 32.2254 48.5327 32.9635C49.8181 33.7017 57.4036 32.9635 57.4036 32.9635C57.4036 32.9635 64.5308 31.4999 65.4472 35.4326C66.3636 39.3654 63.8054 40.0017 63.8054 40.0017C63.8054 40.0017 67.7381 41.1854 66.8218 44.1126C65.9054 47.0399 63.8054 47.6763 63.8054 47.6763C63.8054 47.6763 65.9945 48.5035 65.3581 51.4181C64.7218 54.3454 62.0618 54.1544 62.0618 54.1544C62.0618 54.1544 63.9836 56.8017 62.0618 58.5454C62.0618 58.5454 61.4254 60.2763 56.029 60.6454H41.6472C41.6472 60.6454 38.5672 60.7344 38.109 61.9308L29.5436 45.2199Z" fill="#FFD663"/>
<path d="M28.7927 43.4253L24.5291 45.6144L34.6091 65.4944L38.86 63.3053L28.7927 43.4253Z" fill="white"/>
<path d="M24.8982 44.52L13.5327 50.0564L23.8673 70.98L35.22 65.4309L24.8982 44.52Z" fill="#FFF2EB" fill-opacity="0.6"/>
<path d="M48.2018 17.4745C48.66 16.2399 48.2909 15.0309 47.3872 14.2163C47.2218 14.6109 47.1836 14.9672 47.1836 14.9672C47.1327 16.7872 46.6491 18.4036 46.0127 19.7654C47.0181 19.2563 47.8327 18.4672 48.2018 17.4745Z" fill="white"/>
</svg>
